<?xml version="1.0" encoding="UTF-8" standalone="no"?>
<svg
   xmlns:dc="http://purl.org/dc/elements/1.1/"
   xmlns:cc="http://creativecommons.org/ns#"
   xmlns:rdf="http://www.w3.org/1999/02/22-rdf-syntax-ns#"
   xmlns:svg="http://www.w3.org/2000/svg"
   xmlns="http://www.w3.org/2000/svg"
   id="svg8"
   version="1.1"
   viewBox="0 0 305.31519 50.048378"
   height="50.048378mm"
   width="305.31519mm">
  <defs
     id="defs2" />
  <metadata
     id="metadata5">
    <rdf:RDF>
      <cc:Work
         rdf:about="">
        <dc:format>image/svg+xml</dc:format>
        <dc:type
           rdf:resource="http://purl.org/dc/dcmitype/StillImage" />
        <dc:title></dc:title>
      </cc:Work>
    </rdf:RDF>
  </metadata>
  <g
     transform="translate(146.91917,-80.876005)"
     id="layer1">
    <g
       id="g1066">
      <path
         style="fill:#4d4d4f;fill-opacity:1;stroke-width:0.35277778"
         d="m -146.91916,130.5421 c 0.008,-0.24336 0.9205,-2.18872 2.02847,-4.32303 l 2.01449,-3.88055 h 38.10001 38.100005 v 4.23333 4.23333 l -40.128485,0.0897 c -31.99377,0.0715 -40.12564,0 -40.11449,-0.35278 z"
         id="path4793" />
      <path
         style="fill:#4d4d4f;fill-opacity:1;stroke-width:0.35277778"
         d="m 129.79889,130.52239 c -0.0987,-0.25721 -0.1341,-2.2037 -0.0787,-4.32554 l 0.1008,-3.85789 h 14.2875 14.2875 v 4.23333 4.23333 l -14.20884,0.0922 c -11.53881,0.0749 -14.24256,0.004 -14.38829,-0.37545 z"
         id="path4747" />
      <path
         style="fill:#4d4d4f;fill-opacity:1;stroke-width:0.35277778"
         d="m -140.02977,116.90962 c -0.17754,-0.28725 16.36985,-34.570725 17.17391,-35.581525 0.25947,-0.32619 2.17389,-0.44097 7.355,-0.44097 6.87679,0 7.01355,0.0144 7.51615,0.79375 0.28155,0.43656 2.60858,5.3975 5.17118,11.0243 2.5626,5.62681 4.849851,10.436965 5.08278,10.689245 0.347525,0.37638 0.488406,0.37638 0.78523,0 0.198949,-0.25228 2.463299,-5.062435 5.031888,-10.689245 2.568593,-5.6268 4.897794,-10.59024 5.176002,-11.02986 l 0.50583,-0.79931 9.777808,0.0937 9.777807,0.0938 v 17.99166 17.991675 h -5.291666 -5.291667 V 103.64128 90.235725 l -0.760938,-0.10843 c -0.418515,-0.0596 -0.953428,0.0991 -1.188692,0.35278 -0.235264,0.25366 -3.38534,6.33495 -7.000173,13.513985 l -6.572419,13.05278 h -4.577422 -4.577428 l -6.71147,-13.31045 c -3.69131,-7.320745 -6.9095,-13.313555 -7.15154,-13.317355 -0.24203,-0.004 -3.45713,6.02559 -7.14465,13.398635 l -6.70459,13.40556 h -5.09355 c -2.80146,0 -5.18078,-0.14113 -5.28738,-0.31361 z"
         id="path4723" />
      <path
         style="fill:#4d4d4f;fill-opacity:1;stroke-width:0.35277778"
         d="m -62.453889,116.79174 c -0.0949,-0.24775 -0.13125,-8.38795 -0.0808,-18.089335 l 0.0918,-17.63889 h 9.99567 9.995665 l 5.10511,11.1125 c 2.80781,6.11187 5.24029,11.248535 5.40551,11.414795 0.46685,0.46978 1.04641,-0.64283 6.0379,-11.591185 2.56533,-5.62681 4.82075,-10.43147 5.01203,-10.67703 0.2688,-0.34507 2.56032,-0.42519 10.089619,-0.35278 l 9.7418204,0.0937 v 17.99166 17.991675 h -5.29166 -5.2916704 l 0.14083,-13.30823 c 0.13251,-12.522625 0.10365,-13.322515 -0.48893,-13.549905 -0.346359,-0.13291 -0.861599,-0.0954 -1.144979,0.0833 -0.28338,0.17875 -3.55586,6.27621 -7.27219,13.549905 l -6.75695,13.22489 -4.46283,0.0985 -4.46282,0.0985 -6.77776,-13.32765 c -3.72777,-7.330205 -6.95825,-13.447615 -7.17884,-13.594245 -0.2206,-0.14663 -0.71859,-0.22601 -1.10664,-0.17639 -0.6916,0.0884 -0.70556,0.35548 -0.70556,13.495775 v 13.40556 l -5.210895,0.0977 c -3.97425,0.0745 -5.25187,-0.009 -5.38347,-0.35278 z"
         id="path4721" />
      <path
         style="fill:#4d4d4f;fill-opacity:1;stroke-width:0.35277778"
         d="m 85.197686,116.60587 c 0.002,-0.33955 3.857607,-8.47549 8.568739,-18.079855 l 8.565685,-17.4625 h 7.32112 7.32112 l 5.10971,11.10415 c 2.81034,6.10728 5.2495,11.243945 5.42035,11.414805 0.4717,0.4717 0.97868,-0.50084 6.03807,-11.582845 2.56886,-5.62681 4.82799,-10.43147 5.02027,-10.67703 0.27019,-0.34503 2.56289,-0.42518 10.09144,-0.35278 l 9.74183,0.0937 v 17.99166 17.991675 h -5.29167 -5.29166 l 0.14082,-13.30823 c 0.13252,-12.522625 0.10365,-13.322515 -0.48892,-13.549905 -0.34636,-0.13291 -0.86433,-0.0937 -1.15105,0.0872 -0.28671,0.18086 -3.5592,6.27831 -7.27219,13.549895 l -6.75089,13.22107 -4.46275,0.0985 -4.46275,0.0985 -6.59938,-12.97488 c -6.69756,-13.167885 -7.07661,-13.856795 -7.62435,-13.856795 -0.16977,0 -3.32574,6.0325 -7.01327,13.405555 l -6.704565,13.40556 h -5.114382 c -4.636797,0 -5.114077,-0.0576 -5.111327,-0.61736 z"
         id="path4719" />
      <path
         style="fill:#0090d8;fill-opacity:1;stroke-width:0.35277778"
         d="m 45.959976,80.887415 0.232544,0.92759 c 0.21154,0.84284 0.158814,0.9048 -0.578776,0.67645 -4.402359,-1.36297 -4.590139,-1.37427 -23.56652,-1.40147 l -18.5208332,-0.0264 -0.09147,17.4625 c -0.05052,9.604375 -0.0159,17.660765 0.077,17.903295 0.132141,0.34497 4.032507,0.43892 17.9069182,0.42893 21.799249,-0.0151 23.387132,-0.20998 26.274882,-3.22099 2.511579,-2.61879 3.27487,-6.07411 3.278868,-14.846645 0.0017,-3.77232 0.132455,-5.9092 0.361735,-5.9092 0.197541,0 3.027662,5.35781 6.289022,11.906245 l 5.92987,11.90625 8.539531,0.0946 8.540048,0.0946 2.769339,-5.73918 c 1.523121,-3.15641 5.40708,-11.11614 8.631001,-17.688845 3.22392,-6.57269 5.861648,-12.09341 5.861648,-12.26799 0,-0.17898 -2.500338,-0.27536 -5.732978,-0.22066 l -5.732465,0.0972 -1.785938,3.52796 c -0.982231,1.94028 -3.907319,7.93662 -6.500378,13.3258 -4.86601,10.113025 -5.229632,10.640715 -6.894153,10.001975 -0.48297,-0.18533 -2.343636,-3.85931 -11.143506,-22.004865 l -2.437577,-5.02708 h -5.853906 z m -20.989416,8.88369 c 4.353305,-0.0133 8.592708,0.0888 9.948747,0.25064 2.472169,0.2951 2.933698,0.46618 3.761526,1.39267 1.307851,1.46375 1.831999,4.31521 1.63091,8.868715 -0.20384,4.61586 -0.784362,6.15006 -2.641184,6.97735 -1.137619,0.50686 -2.969882,0.61391 -12.359452,0.72296 -9.035899,0.10494 -11.056747,0.0419 -11.207067,-0.34985 -0.1008,-0.26284 -0.140984,-4.36415 -0.08888,-9.114175 l 0.09457,-8.63668 8.995833,-0.0987 c 0.618464,-0.007 1.243102,-0.011 1.865003,-0.0129 z"
         id="path4717" />
      <path
         id="path78"
         style="font-style:normal;font-variant:normal;font-weight:600;font-stretch:normal;font-size:12.51232147px;line-height:1.25;font-family:Dosis;-inkscape-font-specification:'Dosis, Semi-Bold';font-variant-ligatures:normal;font-variant-caps:normal;font-variant-numeric:normal;font-feature-settings:normal;text-align:start;letter-spacing:0px;word-spacing:0px;writing-mode:lr-tb;text-anchor:start;fill:#4d4d4f;fill-opacity:1;stroke:none;stroke-width:0.3128095"
         d="m -59.549145,127.74695 q -0.110554,0.1586 -0.248749,0.21524 -0.138194,0.0567 -0.290206,0.0567 -0.138195,0 -0.276388,-0.0567 -0.124375,-0.0567 -0.22111,-0.21524 l -1.851796,-2.87754 v 5.50584 q 0,0.19258 -0.23493,0.29454 -0.221109,0.10196 -0.497496,0.10196 -0.276388,0 -0.511317,-0.10196 -0.22111,-0.10196 -0.22111,-0.29454 v -7.28448 q 0,-0.32853 0.22111,-0.46448 0.234929,-0.13596 0.511317,-0.13596 0.400761,0 0.64951,0.14728 0.248749,0.13594 0.511317,0.53246 l 1.934712,3.00216 1.962351,-3.00216 q 0.262568,-0.39652 0.497497,-0.53246 0.248749,-0.14728 0.64951,-0.14728 0.290208,0 0.511317,0.13596 0.22111,0.13595 0.22111,0.46448 v 7.28448 q 0,0.19258 -0.234929,0.29454 -0.22111,0.10196 -0.497498,0.10196 -0.276387,0 -0.511316,-0.10196 -0.22111,-0.10196 -0.22111,-0.29454 v -5.43787 z" />
      <path
         id="path80"
         style="font-style:normal;font-variant:normal;font-weight:600;font-stretch:normal;font-size:12.51232147px;line-height:1.25;font-family:Dosis;-inkscape-font-specification:'Dosis, Semi-Bold';font-variant-ligatures:normal;font-variant-caps:normal;font-variant-numeric:normal;font-feature-settings:normal;text-align:start;letter-spacing:0px;word-spacing:0px;writing-mode:lr-tb;text-anchor:start;fill:#4d4d4f;fill-opacity:1;stroke:none;stroke-width:0.3128095"
         d="m -49.592288,122.87552 q 0,-0.20391 0.22111,-0.29455 0.23493,-0.0906 0.511317,-0.0906 0.276388,0 0.497498,0.0906 0.234928,0.0906 0.234928,0.29455 v 5.43787 q 0,0.69105 -0.248747,1.1782 -0.23493,0.47582 -0.663331,0.7817 -0.428401,0.29454 -1.008814,0.4305 -0.580414,0.13594 -1.243743,0.13594 -0.663331,0 -1.243744,-0.13594 -0.566594,-0.13596 -0.994994,-0.4305 -0.428401,-0.30588 -0.67715,-0.7817 -0.23493,-0.48715 -0.23493,-1.1782 v -5.43787 q 0,-0.20391 0.221111,-0.29455 0.234929,-0.0906 0.511316,-0.0906 0.276388,0 0.497498,0.0906 0.23493,0.0906 0.23493,0.29455 v 5.43787 q 0,0.74771 0.442219,1.11023 0.456039,0.3512 1.243744,0.3512 0.801523,0 1.243743,-0.3512 0.456039,-0.36252 0.456039,-1.11023 z" />
      <path
         id="path82"
         style="font-style:normal;font-variant:normal;font-weight:600;font-stretch:normal;font-size:12.51232147px;line-height:1.25;font-family:Dosis;-inkscape-font-specification:'Dosis, Semi-Bold';font-variant-ligatures:normal;font-variant-caps:normal;font-variant-numeric:normal;font-feature-settings:normal;text-align:start;letter-spacing:0px;word-spacing:0px;writing-mode:lr-tb;text-anchor:start;fill:#4d4d4f;fill-opacity:1;stroke:none;stroke-width:0.3128095"
         d="m -45.681621,130.77176 q -0.23493,0 -0.442221,-0.10196 -0.207289,-0.10196 -0.207289,-0.29455 v -7.49973 q 0,-0.20391 0.221109,-0.29455 0.234929,-0.0906 0.511317,-0.0906 0.276387,0 0.497497,0.0906 0.23493,0.0906 0.23493,0.29455 v 6.83133 h 3.593036 q 0.22111,0 0.331665,0.16993 0.110555,0.15861 0.110555,0.36253 0,0.19259 -0.110555,0.36252 -0.110555,0.16993 -0.331665,0.16993 z" />
      <path
         id="path84"
         style="font-style:normal;font-variant:normal;font-weight:600;font-stretch:normal;font-size:12.51232147px;line-height:1.25;font-family:Dosis;-inkscape-font-specification:'Dosis, Semi-Bold';font-variant-ligatures:normal;font-variant-caps:normal;font-variant-numeric:normal;font-feature-settings:normal;text-align:start;letter-spacing:0px;word-spacing:0px;writing-mode:lr-tb;text-anchor:start;fill:#4d4d4f;fill-opacity:1;stroke:none;stroke-width:0.3128095"
         d="m -35.594775,122.49034 q 0.248748,0 0.359303,0.16993 0.124374,0.16994 0.124374,0.36253 0,0.22658 -0.124374,0.39651 -0.124375,0.16993 -0.359303,0.16993 h -2.128184 v 6.78601 q 0,0.19258 -0.234929,0.29454 -0.22111,0.10196 -0.497498,0.10196 -0.276387,0 -0.511317,-0.10196 -0.22111,-0.10196 -0.22111,-0.29454 v -6.78601 h -2.142003 q -0.234928,0 -0.359303,-0.1586 -0.124374,-0.16993 -0.124374,-0.39652 0,-0.1926 0.110555,-0.36251 0.124375,-0.18128 0.373122,-0.18128 z" />
      <path
         id="path86"
         style="font-style:normal;font-variant:normal;font-weight:600;font-stretch:normal;font-size:12.51232147px;line-height:1.25;font-family:Dosis;-inkscape-font-specification:'Dosis, Semi-Bold';font-variant-ligatures:normal;font-variant-caps:normal;font-variant-numeric:normal;font-feature-settings:normal;text-align:start;letter-spacing:0px;word-spacing:0px;writing-mode:lr-tb;text-anchor:start;fill:#4d4d4f;fill-opacity:1;stroke:none;stroke-width:0.3128095"
         d="m -33.996261,122.87552 q 0,-0.20391 0.22111,-0.29455 0.234928,-0.0906 0.511316,-0.0906 0.276387,0 0.497497,0.0906 0.23493,0.0906 0.23493,0.29455 v 7.49973 q 0,0.19258 -0.23493,0.29454 -0.22111,0.10196 -0.497497,0.10196 -0.276388,0 -0.511316,-0.10196 -0.22111,-0.10196 -0.22111,-0.29454 z" />
      <path
         id="path88"
         style="font-style:normal;font-variant:normal;font-weight:600;font-stretch:normal;font-size:12.51232147px;line-height:1.25;font-family:Dosis;-inkscape-font-specification:'Dosis, Semi-Bold';font-variant-ligatures:normal;font-variant-caps:normal;font-variant-numeric:normal;font-feature-settings:normal;text-align:start;letter-spacing:0px;word-spacing:0px;writing-mode:lr-tb;text-anchor:start;fill:#4d4d4f;fill-opacity:1;stroke:none;stroke-width:0.3128095"
         d="m -26.350263,127.74695 q -0.110554,0.1586 -0.248749,0.21524 -0.138193,0.0567 -0.290206,0.0567 -0.138194,0 -0.276388,-0.0567 -0.124374,-0.0567 -0.221109,-0.21524 l -1.851796,-2.87754 v 5.50584 q 0,0.19258 -0.23493,0.29454 -0.22111,0.10196 -0.497497,0.10196 -0.276388,0 -0.511317,-0.10196 -0.22111,-0.10196 -0.22111,-0.29454 v -7.28448 q 0,-0.32853 0.22111,-0.46448 0.234929,-0.13596 0.511317,-0.13596 0.400762,0 0.64951,0.14728 0.248749,0.13594 0.511317,0.53246 l 1.934712,3.00216 1.962352,-3.00216 q 0.262568,-0.39652 0.497496,-0.53246 0.248749,-0.14728 0.649511,-0.14728 0.290207,0 0.511317,0.13596 0.22111,0.13595 0.22111,0.46448 v 7.28448 q 0,0.19258 -0.234929,0.29454 -0.22111,0.10196 -0.497498,0.10196 -0.276387,0 -0.511317,-0.10196 -0.22111,-0.10196 -0.22111,-0.29454 v -5.43787 z" />
      <path
         id="path90"
         style="font-style:normal;font-variant:normal;font-weight:600;font-stretch:normal;font-size:12.51232147px;line-height:1.25;font-family:Dosis;-inkscape-font-specification:'Dosis, Semi-Bold';font-variant-ligatures:normal;font-variant-caps:normal;font-variant-numeric:normal;font-feature-settings:normal;text-align:start;letter-spacing:0px;word-spacing:0px;writing-mode:lr-tb;text-anchor:start;fill:#4d4d4f;fill-opacity:1;stroke:none;stroke-width:0.3128095"
         d="m -18.203743,130.83973 q -0.66333,0 -1.229924,-0.13594 -0.566595,-0.13596 -0.981175,-0.4305 -0.414582,-0.30588 -0.649511,-0.7817 -0.23493,-0.48715 -0.23493,-1.1782 v -3.2967 q 0,-0.69107 0.23493,-1.16688 0.234929,-0.48714 0.649511,-0.78169 0.41458,-0.30588 0.981175,-0.44183 0.566594,-0.13595 1.229924,-0.13595 0.64951,0 1.216104,0.13595 0.566595,0.13595 0.981176,0.44183 0.4284,0.29455 0.66333,0.78169 0.248748,0.47581 0.248748,1.16688 v 3.2967 q 0,0.69105 -0.248748,1.1782 -0.23493,0.47582 -0.66333,0.7817 -0.414581,0.29454 -0.981176,0.4305 -0.566594,0.13594 -1.216104,0.13594 z m 1.644505,-5.82304 q 0,-0.74772 -0.44222,-1.09891 -0.4284,-0.36252 -1.202285,-0.36252 -0.787704,0 -1.216105,0.36252 -0.414581,0.35119 -0.414581,1.09891 v 3.2967 q 0,0.74771 0.414581,1.11023 0.428401,0.3512 1.216105,0.3512 0.773885,0 1.202285,-0.3512 0.44222,-0.36252 0.44222,-1.11023 z" />
      <path
         id="path92"
         style="font-style:normal;font-variant:normal;font-weight:600;font-stretch:normal;font-size:12.51232147px;line-height:1.25;font-family:Dosis;-inkscape-font-specification:'Dosis, Semi-Bold';font-variant-ligatures:normal;font-variant-caps:normal;font-variant-numeric:normal;font-feature-settings:normal;text-align:start;letter-spacing:0px;word-spacing:0px;writing-mode:lr-tb;text-anchor:start;fill:#4d4d4f;fill-opacity:1;stroke:none;stroke-width:0.3128095"
         d="m -10.279631,122.49034 q 0.6633302,0 1.2299244,0.13595 0.5665943,0.13595 0.9811755,0.44183 0.4145811,0.29455 0.6495105,0.78169 0.2487487,0.47581 0.2487487,1.16688 v 3.22873 q 0,0.69106 -0.2487487,1.1782 -0.2349294,0.47582 -0.6495105,0.7817 -0.4145812,0.29455 -0.9811755,0.4305 -0.5665942,0.13594 -1.2299244,0.13594 h -2.446029 q -0.290206,0 -0.469858,-0.11329 -0.179652,-0.11329 -0.179652,-0.27189 v -7.51106 q 0,-0.1586 0.179652,-0.27189 0.179652,-0.11329 0.469858,-0.11329 z m -1.630686,1.06492 v 6.15159 h 1.630686 q 0.7877044,0 1.216105,-0.3512 0.4284006,-0.36253 0.4284006,-1.11023 v -3.22873 q 0,-0.74772 -0.4284006,-1.09891 -0.4284006,-0.36252 -1.216105,-0.36252 z" />
      <path
         id="path94"
         style="font-style:normal;font-variant:normal;font-weight:600;font-stretch:normal;font-size:12.51232147px;line-height:1.25;font-family:Dosis;-inkscape-font-specification:'Dosis, Semi-Bold';font-variant-ligatures:normal;font-variant-caps:normal;font-variant-numeric:normal;font-feature-settings:normal;text-align:start;letter-spacing:0px;word-spacing:0px;writing-mode:lr-tb;text-anchor:start;fill:#4d4d4f;fill-opacity:1;stroke:none;stroke-width:0.3128095"
         d="m -4.0019624,126.14957 h 2.1281833 q 0.2349293,0 0.3593037,0.14727 0.1243743,0.14727 0.1243743,0.33987 0,0.1586 -0.1243743,0.31721 -0.110555,0.14727 -0.3593037,0.14727 h -2.1281833 v 2.60565 h 4.1043536 q 0.2349292,0 0.3593036,0.1586 0.1243744,0.1586 0.1243744,0.38518 0,0.19259 -0.1243744,0.36252 -0.110555,0.15861 -0.3593036,0.15861 h -4.9196966 q -0.2349294,0 -0.44222,-0.10196 -0.2072905,-0.10196 -0.2072905,-0.29454 v -7.4884 q 0,-0.19259 0.2072905,-0.29455 0.2072906,-0.10196 0.44222,-0.10196 h 4.9196966 q 0.2487486,0 0.3593036,0.16993 0.1243744,0.15861 0.1243744,0.3512 0,0.22657 -0.1243744,0.38519 -0.1243744,0.1586 -0.3593036,0.1586 h -4.1043536 z" />
      <path
         id="path96"
         style="font-style:normal;font-variant:normal;font-weight:600;font-stretch:normal;font-size:12.51232147px;line-height:1.25;font-family:Dosis;-inkscape-font-specification:'Dosis, Semi-Bold';font-variant-ligatures:normal;font-variant-caps:normal;font-variant-numeric:normal;font-feature-settings:normal;text-align:start;letter-spacing:0px;word-spacing:0px;writing-mode:lr-tb;text-anchor:start;fill:#0090d8;fill-opacity:1;stroke:none;stroke-width:0.3128095"
         d="m 7.6153785,122.49034 q 0.6633304,0 1.2299244,0.13595 0.566594,0.13595 0.981175,0.44183 0.4145811,0.29455 0.6495101,0.78169 0.248749,0.47581 0.248749,1.16688 v 3.22873 q 0,0.69106 -0.248749,1.1782 -0.234929,0.47582 -0.6495101,0.7817 -0.414581,0.29455 -0.981175,0.4305 -0.566594,0.13594 -1.2299244,0.13594 H 5.1693496 q -0.2902068,0 -0.4698587,-0.11329 -0.1796518,-0.11329 -0.1796518,-0.27189 v -7.51106 q 0,-0.1586 0.1796518,-0.27189 0.1796519,-0.11329 0.4698587,-0.11329 z m -1.6306859,1.06492 v 6.15159 h 1.6306859 q 0.7877044,0 1.2161044,-0.3512 0.428401,-0.36253 0.428401,-1.11023 v -3.22873 q 0,-0.74772 -0.428401,-1.09891 -0.4284,-0.36252 -1.2161044,-0.36252 z" />
      <path
         id="path98"
         style="font-style:normal;font-variant:normal;font-weight:600;font-stretch:normal;font-size:12.51232147px;line-height:1.25;font-family:Dosis;-inkscape-font-specification:'Dosis, Semi-Bold';font-variant-ligatures:normal;font-variant-caps:normal;font-variant-numeric:normal;font-feature-settings:normal;text-align:start;letter-spacing:0px;word-spacing:0px;writing-mode:lr-tb;text-anchor:start;fill:#0090d8;fill-opacity:1;stroke:none;stroke-width:0.3128095"
         d="m 12.428189,122.87552 q 0,-0.20391 0.22111,-0.29455 0.234929,-0.0906 0.511317,-0.0906 0.276387,0 0.497497,0.0906 0.23493,0.0906 0.23493,0.29455 v 7.49973 q 0,0.19258 -0.23493,0.29454 -0.22111,0.10196 -0.497497,0.10196 -0.276388,0 -0.511317,-0.10196 -0.22111,-0.10196 -0.22111,-0.29454 z" />
      <path
         id="path100"
         style="font-style:normal;font-variant:normal;font-weight:600;font-stretch:normal;font-size:12.51232147px;line-height:1.25;font-family:Dosis;-inkscape-font-specification:'Dosis, Semi-Bold';font-variant-ligatures:normal;font-variant-caps:normal;font-variant-numeric:normal;font-feature-settings:normal;text-align:start;letter-spacing:0px;word-spacing:0px;writing-mode:lr-tb;text-anchor:start;fill:#0090d8;fill-opacity:1;stroke:none;stroke-width:0.3128095"
         d="m 20.364397,124.76745 q -0.02763,-0.24923 -0.124374,-0.46449 -0.09674,-0.22659 -0.290207,-0.38518 -0.179652,-0.16993 -0.483678,-0.26056 -0.290207,-0.10196 -0.746246,-0.10196 -0.787705,0 -1.216105,0.36252 -0.414581,0.35119 -0.414581,1.09891 v 3.29669 q 0,0.74771 0.414581,1.11023 0.4284,0.3512 1.216105,0.3512 0.773885,0 1.202285,-0.3512 0.44222,-0.36252 0.44222,-1.11023 v -0.92897 H 18.96864 q -0.234929,0 -0.359303,-0.14727 -0.110556,-0.14727 -0.110556,-0.33986 0,-0.16993 0.110556,-0.31721 0.124374,-0.1586 0.359303,-0.1586 h 2.376933 q 0.234929,0 0.359303,0.12461 0.124375,0.12463 0.124375,0.28323 v 1.48408 q 0,0.69105 -0.248749,1.1782 -0.234929,0.47582 -0.66333,0.7817 -0.414581,0.29454 -0.981175,0.4305 -0.566594,0.13594 -1.216105,0.13594 -0.66333,0 -1.229924,-0.13594 -0.566594,-0.13596 -0.981176,-0.4305 -0.414581,-0.30588 -0.64951,-0.7817 -0.23493,-0.48715 -0.23493,-1.1782 v -3.2967 q 0,-0.69107 0.23493,-1.16688 0.248749,-0.48714 0.663329,-0.78169 0.414582,-0.30588 0.967357,-0.44183 0.552775,-0.13595 1.188466,-0.13595 0.690969,0 1.271382,0.14728 0.580414,0.14727 0.994994,0.41917 0.414582,0.27189 0.649511,0.6684 0.23493,0.38518 0.23493,0.861 0,0.35119 -0.193472,0.46448 -0.179652,0.11329 -0.538955,0.11329 -0.290207,0 -0.511317,-0.0793 -0.207291,-0.0906 -0.22111,-0.31721 z" />
      <path
         id="path102"
         style="font-style:normal;font-variant:normal;font-weight:600;font-stretch:normal;font-size:12.51232147px;line-height:1.25;font-family:Dosis;-inkscape-font-specification:'Dosis, Semi-Bold';font-variant-ligatures:normal;font-variant-caps:normal;font-variant-numeric:normal;font-feature-settings:normal;text-align:start;letter-spacing:0px;word-spacing:0px;writing-mode:lr-tb;text-anchor:start;fill:#0090d8;fill-opacity:1;stroke:none;stroke-width:0.3128095"
         d="m 23.413512,122.87552 q 0,-0.20391 0.221111,-0.29455 0.234929,-0.0906 0.511316,-0.0906 0.276388,0 0.497497,0.0906 0.234929,0.0906 0.234929,0.29455 v 7.49973 q 0,0.19258 -0.234929,0.29454 -0.221109,0.10196 -0.497497,0.10196 -0.276387,0 -0.511316,-0.10196 -0.221111,-0.10196 -0.221111,-0.29454 z" />
      <path
         id="path104"
         style="font-style:normal;font-variant:normal;font-weight:600;font-stretch:normal;font-size:12.51232147px;line-height:1.25;font-family:Dosis;-inkscape-font-specification:'Dosis, Semi-Bold';font-variant-ligatures:normal;font-variant-caps:normal;font-variant-numeric:normal;font-feature-settings:normal;text-align:start;letter-spacing:0px;word-spacing:0px;writing-mode:lr-tb;text-anchor:start;fill:#0090d8;fill-opacity:1;stroke:none;stroke-width:0.3128095"
         d="m 32.206521,122.49034 q 0.248749,0 0.359304,0.16993 0.124375,0.16994 0.124375,0.36253 0,0.22658 -0.124375,0.39651 -0.124374,0.16993 -0.359304,0.16993 h -2.128183 v 6.78601 q 0,0.19258 -0.23493,0.29454 -0.22111,0.10196 -0.497497,0.10196 -0.276388,0 -0.511316,-0.10196 -0.22111,-0.10196 -0.22111,-0.29454 v -6.78601 h -2.142003 q -0.23493,0 -0.359303,-0.1586 -0.124375,-0.16993 -0.124375,-0.39652 0,-0.1926 0.110554,-0.36251 0.124375,-0.18128 0.373124,-0.18128 z" />
      <path
         id="path106"
         style="font-style:normal;font-variant:normal;font-weight:600;font-stretch:normal;font-size:12.51232147px;line-height:1.25;font-family:Dosis;-inkscape-font-specification:'Dosis, Semi-Bold';font-variant-ligatures:normal;font-variant-caps:normal;font-variant-numeric:normal;font-feature-settings:normal;text-align:start;letter-spacing:0px;word-spacing:0px;writing-mode:lr-tb;text-anchor:start;fill:#0090d8;fill-opacity:1;stroke:none;stroke-width:0.3128095"
         d="m 33.215766,130.77176 q -0.152013,0 -0.317845,-0.034 -0.152013,-0.034 -0.290207,-0.10196 -0.138193,-0.068 -0.22111,-0.1586 -0.08291,-0.0906 -0.08291,-0.20393 0,-0.068 0.01382,-0.10196 l 2.750055,-7.34112 q 0.08291,-0.20391 0.345485,-0.30587 0.262568,-0.10196 0.580414,-0.10196 0.317845,0 0.580413,0.10196 0.276387,0.10196 0.359303,0.30587 l 2.736236,7.34112 q 0.02763,0.068 0.02763,0.10196 0,0.10196 -0.09674,0.19258 -0.08291,0.0906 -0.22111,0.15862 -0.124374,0.068 -0.290206,0.11329 -0.165832,0.034 -0.317846,0.034 -0.179651,0 -0.317845,-0.0567 -0.124374,-0.0567 -0.179652,-0.19259 l -0.566595,-1.6087 h -3.413384 l -0.566594,1.6087 q -0.05528,0.13594 -0.193472,0.19259 -0.124375,0.0567 -0.317845,0.0567 z m 4.159632,-2.82089 -1.381937,-3.88582 -1.381938,3.88582 z" />
      <path
         id="path108"
         style="font-style:normal;font-variant:normal;font-weight:600;font-stretch:normal;font-size:12.51232147px;line-height:1.25;font-family:Dosis;-inkscape-font-specification:'Dosis, Semi-Bold';font-variant-ligatures:normal;font-variant-caps:normal;font-variant-numeric:normal;font-feature-settings:normal;text-align:start;letter-spacing:0px;word-spacing:0px;writing-mode:lr-tb;text-anchor:start;fill:#0090d8;fill-opacity:1;stroke:none;stroke-width:0.3128095"
         d="m 41.445199,130.77176 q -0.234929,0 -0.44222,-0.10196 -0.20729,-0.10196 -0.20729,-0.29455 v -7.49973 q 0,-0.20391 0.221109,-0.29455 0.23493,-0.0906 0.511317,-0.0906 0.276387,0 0.497498,0.0906 0.234929,0.0906 0.234929,0.29455 v 6.83133 h 3.593037 q 0.22111,0 0.331664,0.16993 0.110556,0.15861 0.110556,0.36253 0,0.19259 -0.110556,0.36252 -0.110554,0.16993 -0.331664,0.16993 z" />
      <path
         id="path110"
         style="font-style:normal;font-variant:normal;font-weight:600;font-stretch:normal;font-size:12.51232147px;line-height:1.25;font-family:Dosis;-inkscape-font-specification:'Dosis, Semi-Bold';font-variant-ligatures:normal;font-variant-caps:normal;font-variant-numeric:normal;font-feature-settings:normal;text-align:start;letter-spacing:0px;word-spacing:0px;writing-mode:lr-tb;text-anchor:start;fill:#0090d8;fill-opacity:1;stroke:none;stroke-width:0.3128095"
         d="m 49.415959,123.09077 q -0.01382,-0.034 -0.01382,-0.10196 0,-0.11329 0.08291,-0.20392 0.08291,-0.0906 0.22111,-0.1586 0.138193,-0.068 0.290207,-0.10196 0.165832,-0.034 0.317845,-0.034 0.193472,0 0.317845,0.0567 0.138195,0.0567 0.193472,0.19259 l 2.280196,6.45746 2.266378,-6.45746 q 0.05528,-0.13595 0.179651,-0.19259 0.138194,-0.0567 0.317845,-0.0567 0.152014,0 0.317847,0.0453 0.165832,0.034 0.290206,0.10196 0.138194,0.068 0.22111,0.1586 0.09674,0.0906 0.09674,0.19259 0,0.034 -0.02763,0.10196 l -2.736235,7.34112 q -0.0691,0.20392 -0.345486,0.30588 -0.262568,0.10195 -0.580413,0.10195 -0.317845,0 -0.580414,-0.10195 -0.262568,-0.10196 -0.345484,-0.30588 z" />
      <path
         id="path112"
         style="font-style:normal;font-variant:normal;font-weight:600;font-stretch:normal;font-size:12.51232147px;line-height:1.25;font-family:Dosis;-inkscape-font-specification:'Dosis, Semi-Bold';font-variant-ligatures:normal;font-variant-caps:normal;font-variant-numeric:normal;font-feature-settings:normal;text-align:start;letter-spacing:0px;word-spacing:0px;writing-mode:lr-tb;text-anchor:start;fill:#0090d8;fill-opacity:1;stroke:none;stroke-width:0.3128095"
         d="m 60.879774,130.83973 q -0.66333,0 -1.229924,-0.13594 -0.566595,-0.13596 -0.981176,-0.4305 -0.414581,-0.30588 -0.64951,-0.7817 -0.23493,-0.48715 -0.23493,-1.1782 v -3.2967 q 0,-0.69107 0.23493,-1.16688 0.234929,-0.48714 0.64951,-0.78169 0.414581,-0.30588 0.981176,-0.44183 0.566594,-0.13595 1.229924,-0.13595 0.64951,0 1.216104,0.13595 0.566595,0.13595 0.981176,0.44183 0.4284,0.29455 0.66333,0.78169 0.248748,0.47581 0.248748,1.16688 v 3.2967 q 0,0.69105 -0.248748,1.1782 -0.23493,0.47582 -0.66333,0.7817 -0.414581,0.29454 -0.981176,0.4305 -0.566594,0.13594 -1.216104,0.13594 z m 1.644505,-5.82304 q 0,-0.74772 -0.44222,-1.09891 -0.428401,-0.36252 -1.202285,-0.36252 -0.787704,0 -1.216105,0.36252 -0.414581,0.35119 -0.414581,1.09891 v 3.2967 q 0,0.74771 0.414581,1.11023 0.428401,0.3512 1.216105,0.3512 0.773884,0 1.202285,-0.3512 0.44222,-0.36252 0.44222,-1.11023 z" />
      <path
         id="path114"
         style="font-style:normal;font-variant:normal;font-weight:600;font-stretch:normal;font-size:12.51232147px;line-height:1.25;font-family:Dosis;-inkscape-font-specification:'Dosis, Semi-Bold';font-variant-ligatures:normal;font-variant-caps:normal;font-variant-numeric:normal;font-feature-settings:normal;text-align:start;letter-spacing:0px;word-spacing:0px;writing-mode:lr-tb;text-anchor:start;fill:#0090d8;fill-opacity:1;stroke:none;stroke-width:0.3128095"
         d="m 65.70835,122.87552 q 0,-0.20391 0.221111,-0.29455 0.234929,-0.0906 0.511316,-0.0906 0.276388,0 0.497498,0.0906 0.234929,0.0906 0.234929,0.29455 v 7.49973 q 0,0.19258 -0.234929,0.29454 -0.22111,0.10196 -0.497498,0.10196 -0.276387,0 -0.511316,-0.10196 -0.221111,-0.10196 -0.221111,-0.29454 z" />
      <path
         id="path116"
         style="font-style:normal;font-variant:normal;font-weight:600;font-stretch:normal;font-size:12.51232147px;line-height:1.25;font-family:Dosis;-inkscape-font-specification:'Dosis, Semi-Bold';font-variant-ligatures:normal;font-variant-caps:normal;font-variant-numeric:normal;font-feature-settings:normal;text-align:start;letter-spacing:0px;word-spacing:0px;writing-mode:lr-tb;text-anchor:start;fill:#0090d8;fill-opacity:1;stroke:none;stroke-width:0.3128095"
         d="m 73.644558,124.76745 q -0.01382,-0.14727 -0.06909,-0.3512 -0.05528,-0.21525 -0.221109,-0.39651 -0.165833,-0.19259 -0.483679,-0.32853 -0.304026,-0.13596 -0.842981,-0.13596 -0.801524,0 -1.229925,0.36252 -0.428401,0.35119 -0.428401,1.09891 v 3.2967 q 0,0.74771 0.428401,1.11023 0.428401,0.3512 1.257563,0.3512 0.525137,0 0.829163,-0.12462 0.317845,-0.13595 0.469859,-0.32854 0.165831,-0.19259 0.207289,-0.40783 0.05528,-0.22658 0.08291,-0.41918 0.02763,-0.22658 0.221111,-0.30587 0.193471,-0.0906 0.497497,-0.0906 0.386942,0 0.566594,0.12462 0.179651,0.12462 0.179651,0.49847 0,0.46448 -0.234928,0.86099 -0.22111,0.38519 -0.635692,0.66841 -0.41458,0.28323 -0.994994,0.44183 -0.580413,0.14727 -1.285202,0.14727 -0.621871,0 -1.188465,-0.13594 -0.552775,-0.13595 -0.967357,-0.4305 -0.414582,-0.30588 -0.663329,-0.7817 -0.23493,-0.48714 -0.23493,-1.1782 v -3.2967 q 0,-0.69107 0.23493,-1.16688 0.248747,-0.48714 0.663329,-0.78169 0.428401,-0.30588 0.981176,-0.44183 0.566594,-0.13595 1.188465,-0.13595 0.704789,0 1.285202,0.1586 0.580414,0.14728 0.994995,0.41918 0.414581,0.27188 0.635691,0.64574 0.221109,0.37386 0.221109,0.82701 0,0.38518 -0.179651,0.5098 -0.179652,0.11329 -0.552775,0.11329 -0.331664,0 -0.525136,-0.0906 -0.193471,-0.10196 -0.207291,-0.30588 z" />
      <path
         id="path118"
         style="font-style:normal;font-variant:normal;font-weight:600;font-stretch:normal;font-size:12.51232147px;line-height:1.25;font-family:Dosis;-inkscape-font-specification:'Dosis, Semi-Bold';font-variant-ligatures:normal;font-variant-caps:normal;font-variant-numeric:normal;font-feature-settings:normal;text-align:start;letter-spacing:0px;word-spacing:0px;writing-mode:lr-tb;text-anchor:start;fill:#0090d8;fill-opacity:1;stroke:none;stroke-width:0.3128095"
         d="m 77.942593,126.14957 h 2.128184 q 0.234929,0 0.359303,0.14727 0.124375,0.14727 0.124375,0.33987 0,0.1586 -0.124375,0.31721 -0.110554,0.14727 -0.359303,0.14727 h -2.128184 v 2.60565 h 4.104354 q 0.234929,0 0.359304,0.1586 0.124374,0.1586 0.124374,0.38518 0,0.19259 -0.124374,0.36252 -0.110556,0.15861 -0.359304,0.15861 H 77.12725 q -0.234929,0 -0.44222,-0.10196 -0.20729,-0.10196 -0.20729,-0.29454 v -7.4884 q 0,-0.19259 0.20729,-0.29455 0.207291,-0.10196 0.44222,-0.10196 h 4.919697 q 0.248748,0 0.359304,0.16993 0.124374,0.15861 0.124374,0.3512 0,0.22657 -0.124374,0.38519 -0.124375,0.1586 -0.359304,0.1586 h -4.104354 z" />
      <path
         id="path120"
         style="font-style:normal;font-variant:normal;font-weight:600;font-stretch:normal;font-size:12.51232147px;line-height:1.25;font-family:Dosis;-inkscape-font-specification:'Dosis, Semi-Bold';font-variant-ligatures:normal;font-variant-caps:normal;font-variant-numeric:normal;font-feature-settings:normal;text-align:start;letter-spacing:0px;word-spacing:0px;writing-mode:lr-tb;text-anchor:start;fill:#4d4d4f;fill-opacity:1;stroke:none;stroke-width:0.3128095"
         d="m 90.817497,127.74695 q -0.110555,0.1586 -0.248749,0.21524 -0.138193,0.0567 -0.290207,0.0567 -0.138193,0 -0.276387,-0.0567 -0.124374,-0.0567 -0.22111,-0.21524 l -1.851795,-2.87754 v 5.50584 q 0,0.19258 -0.23493,0.29454 -0.22111,0.10196 -0.497497,0.10196 -0.276388,0 -0.511317,-0.10196 -0.22111,-0.10196 -0.22111,-0.29454 v -7.28448 q 0,-0.32853 0.22111,-0.46448 0.234929,-0.13596 0.511317,-0.13596 0.400761,0 0.64951,0.14728 0.248749,0.13594 0.511317,0.53246 l 1.934712,3.00216 1.96235,-3.00216 q 0.262569,-0.39652 0.497498,-0.53246 0.248749,-0.14728 0.649511,-0.14728 0.290207,0 0.511317,0.13596 0.221109,0.13595 0.221109,0.46448 v 7.28448 q 0,0.19258 -0.234929,0.29454 -0.221109,0.10196 -0.497497,0.10196 -0.276387,0 -0.511317,-0.10196 -0.22111,-0.10196 -0.22111,-0.29454 v -5.43787 z" />
      <path
         id="path122"
         style="font-style:normal;font-variant:normal;font-weight:600;font-stretch:normal;font-size:12.51232147px;line-height:1.25;font-family:Dosis;-inkscape-font-specification:'Dosis, Semi-Bold';font-variant-ligatures:normal;font-variant-caps:normal;font-variant-numeric:normal;font-feature-settings:normal;text-align:start;letter-spacing:0px;word-spacing:0px;writing-mode:lr-tb;text-anchor:start;fill:#4d4d4f;fill-opacity:1;stroke:none;stroke-width:0.3128095"
         d="m 98.964013,130.83973 q -0.66333,0 -1.229922,-0.13594 -0.566595,-0.13596 -0.981176,-0.4305 -0.414581,-0.30588 -0.64951,-0.7817 -0.23493,-0.48715 -0.23493,-1.1782 v -3.2967 q 0,-0.69107 0.23493,-1.16688 0.234929,-0.48714 0.64951,-0.78169 0.414581,-0.30588 0.981176,-0.44183 0.566592,-0.13595 1.229922,-0.13595 0.64951,0 1.216107,0.13595 0.56659,0.13595 0.98117,0.44183 0.4284,0.29455 0.66333,0.78169 0.24875,0.47581 0.24875,1.16688 v 3.2967 q 0,0.69105 -0.24875,1.1782 -0.23493,0.47582 -0.66333,0.7817 -0.41458,0.29454 -0.98117,0.4305 -0.566597,0.13594 -1.216107,0.13594 z m 1.644507,-5.82304 q 0,-0.74772 -0.44222,-1.09891 -0.428397,-0.36252 -1.202287,-0.36252 -0.7877,0 -1.216103,0.36252 -0.414582,0.35119 -0.414582,1.09891 v 3.2967 q 0,0.74771 0.414582,1.11023 0.428403,0.3512 1.216103,0.3512 0.77389,0 1.202287,-0.3512 0.44222,-0.36252 0.44222,-1.11023 z" />
      <path
         id="path124"
         style="font-style:normal;font-variant:normal;font-weight:600;font-stretch:normal;font-size:12.51232147px;line-height:1.25;font-family:Dosis;-inkscape-font-specification:'Dosis, Semi-Bold';font-variant-ligatures:normal;font-variant-caps:normal;font-variant-numeric:normal;font-feature-settings:normal;text-align:start;letter-spacing:0px;word-spacing:0px;writing-mode:lr-tb;text-anchor:start;fill:#4d4d4f;fill-opacity:1;stroke:none;stroke-width:0.3128095"
         d="m 106.88814,122.49034 q 0.66333,0 1.22992,0.13595 0.5666,0.13595 0.98118,0.44183 0.41458,0.29455 0.64951,0.78169 0.24875,0.47581 0.24875,1.16688 v 3.22873 q 0,0.69106 -0.24875,1.1782 -0.23493,0.47582 -0.64951,0.7817 -0.41458,0.29455 -0.98118,0.4305 -0.56659,0.13594 -1.22992,0.13594 h -2.44603 q -0.29021,0 -0.46986,-0.11329 -0.17965,-0.11329 -0.17965,-0.27189 v -7.51106 q 0,-0.1586 0.17965,-0.27189 0.17965,-0.11329 0.46986,-0.11329 z m -1.63069,1.06492 v 6.15159 h 1.63069 q 0.7877,0 1.2161,-0.3512 0.4284,-0.36253 0.4284,-1.11023 v -3.22873 q 0,-0.74772 -0.4284,-1.09891 -0.4284,-0.36252 -1.2161,-0.36252 z" />
      <path
         id="path126"
         style="font-style:normal;font-variant:normal;font-weight:600;font-stretch:normal;font-size:12.51232147px;line-height:1.25;font-family:Dosis;-inkscape-font-specification:'Dosis, Semi-Bold';font-variant-ligatures:normal;font-variant-caps:normal;font-variant-numeric:normal;font-feature-settings:normal;text-align:start;letter-spacing:0px;word-spacing:0px;writing-mode:lr-tb;text-anchor:start;fill:#4d4d4f;fill-opacity:1;stroke:none;stroke-width:0.3128095"
         d="m 113.1658,126.14957 h 2.12818 q 0.23493,0 0.35931,0.14727 0.12437,0.14727 0.12437,0.33987 0,0.1586 -0.12437,0.31721 -0.11056,0.14727 -0.35931,0.14727 h -2.12818 v 2.60565 h 4.10435 q 0.23493,0 0.3593,0.1586 0.12438,0.1586 0.12438,0.38518 0,0.19259 -0.12438,0.36252 -0.11055,0.15861 -0.3593,0.15861 h -4.91969 q -0.23493,0 -0.44222,-0.10196 -0.20729,-0.10196 -0.20729,-0.29454 v -7.4884 q 0,-0.19259 0.20729,-0.29455 0.20729,-0.10196 0.44222,-0.10196 h 4.91969 q 0.24875,0 0.3593,0.16993 0.12438,0.15861 0.12438,0.3512 0,0.22657 -0.12438,0.38519 -0.12437,0.1586 -0.3593,0.1586 h -4.10435 z" />
      <path
         id="path128"
         style="font-style:normal;font-variant:normal;font-weight:600;font-stretch:normal;font-size:12.51232147px;line-height:1.25;font-family:Dosis;-inkscape-font-specification:'Dosis, Semi-Bold';font-variant-ligatures:normal;font-variant-caps:normal;font-variant-numeric:normal;font-feature-settings:normal;text-align:start;letter-spacing:0px;word-spacing:0px;writing-mode:lr-tb;text-anchor:start;fill:#4d4d4f;fill-opacity:1;stroke:none;stroke-width:0.3128095"
         d="m 123.28763,127.74695 q -0.11056,0.1586 -0.24875,0.21524 -0.13819,0.0567 -0.2902,0.0567 -0.13819,0 -0.2764,-0.0567 -0.12437,-0.0567 -0.2211,-0.21524 l -1.85179,-2.87754 v 5.50584 q 0,0.19258 -0.23493,0.29454 -0.22112,0.10196 -0.49751,0.10196 -0.27638,0 -0.51131,-0.10196 -0.22111,-0.10196 -0.22111,-0.29454 v -7.28448 q 0,-0.32853 0.22111,-0.46448 0.23493,-0.13596 0.51131,-0.13596 0.40077,0 0.64952,0.14728 0.24874,0.13594 0.51132,0.53246 l 1.9347,3.00216 1.96235,-3.00216 q 0.26258,-0.39652 0.49751,-0.53246 0.24875,-0.14728 0.64951,-0.14728 0.2902,0 0.51131,0.13596 0.22111,0.13595 0.22111,0.46448 v 7.28448 q 0,0.19258 -0.23493,0.29454 -0.22111,0.10196 -0.49749,0.10196 -0.27639,0 -0.51132,-0.10196 -0.22111,-0.10196 -0.22111,-0.29454 v -5.43787 z" />
    </g>
  </g>
</svg>
