<?xml version="1.0" encoding="UTF-8" standalone="no"?>
<svg
   xmlns:dc="http://purl.org/dc/elements/1.1/"
   xmlns:cc="http://creativecommons.org/ns#"
   xmlns:rdf="http://www.w3.org/1999/02/22-rdf-syntax-ns#"
   xmlns:svg="http://www.w3.org/2000/svg"
   xmlns="http://www.w3.org/2000/svg"
   width="305.31519mm"
   height="50.048378mm"
   viewBox="0 0 305.31519 50.048378"
   version="1.1"
   id="svg8">
  <defs
     id="defs2" />
  <metadata
     id="metadata5">
    <rdf:RDF>
      <cc:Work
         rdf:about="">
        <dc:format>image/svg+xml</dc:format>
        <dc:type
           rdf:resource="http://purl.org/dc/dcmitype/StillImage" />
        <dc:title></dc:title>
      </cc:Work>
    </rdf:RDF>
  </metadata>
  <g
     id="g119">
    <path
       style="fill:#4d4d4f;fill-opacity:1;stroke-width:1.33333337"
       d="M 229.36914 0 L 227.45703 3.0214844 C 226.40554 4.6830403 217.6026 23.442339 207.89453 44.708984 C 198.18648 65.97567 189.62889 84.155876 188.87695 85.109375 C 187.7551 86.531914 187.22168 86.531914 185.9082 85.109375 C 185.02784 84.155876 176.38464 65.97567 166.69922 44.708984 C 157.0138 23.442339 148.21842 4.6929593 147.1543 3.0429688 C 145.25471 0.097393783 144.73711 0.04296875 118.74609 0.04296875 C 99.163952 0.04296875 91.92794 0.47614021 90.947266 1.7089844 C 87.908299 5.5293308 25.368045 135.10378 26.039062 136.18945 C 26.441962 136.84135 35.43524 137.375 46.023438 137.375 L 65.273438 137.375 L 90.613281 86.708984 C 104.55036 58.842358 116.70243 36.053241 117.61719 36.068359 C 118.53198 36.082722 130.69508 58.733385 144.64648 86.402344 L 170.01367 136.70898 L 187.3125 136.70898 L 204.61328 136.70898 L 229.45508 87.375 C 243.11744 60.24164 255.02292 37.257543 255.91211 36.298828 C 256.8013 35.340038 258.82251 34.739584 260.4043 34.964844 L 263.28125 35.375 L 263.28125 86.041016 L 263.28125 136.70898 L 283.28125 136.70898 L 303.28125 136.70898 L 303.28125 68.708984 L 303.28125 0.70898438 L 266.32422 0.35351562 L 229.36914 0 z M 496.64062 0.26367188 C 482.15177 0.29451636 477.08812 0.70934879 476.32617 1.6875 C 475.60322 2.6156008 467.0805 20.776283 457.38477 42.042969 C 438.51929 83.422578 436.32697 87.627111 434.5625 85.851562 C 433.93805 85.223178 424.74501 65.808967 414.13281 42.708984 L 394.83789 0.70898438 L 357.05859 0.70898438 L 319.28125 0.70898438 L 318.93359 67.375 C 318.74292 104.04165 318.8796 134.80776 319.23828 135.74414 C 319.73567 137.04347 324.56515 137.35972 339.58594 137.07812 L 359.28125 136.70898 L 359.28125 86.042969 C 359.28125 36.37886 359.33334 35.369266 361.94727 35.035156 C 363.41391 34.847616 365.29514 35.14698 366.12891 35.701172 C 366.96263 36.255364 379.17251 59.375367 393.26172 87.080078 L 418.87891 137.45312 L 435.74609 137.08008 L 452.61328 136.70898 L 478.15234 86.724609 C 492.19832 59.233479 504.56568 36.187309 505.63672 35.511719 C 506.70776 34.836317 508.6558 34.694929 509.96484 35.197266 C 512.20452 36.056692 512.31333 39.08055 511.8125 86.410156 L 511.28125 136.70898 L 531.28125 136.70898 L 551.28125 136.70898 L 551.28125 68.708984 L 551.28125 0.70898438 L 514.46094 0.35546875 C 507.34665 0.28704985 501.47026 0.25339036 496.64062 0.26367188 z M 15.28125 156.70898 L 7.6660156 171.375 C 3.4784125 179.44168 0.03023622 186.79506 0 187.71484 C -0.042141733 189.04819 30.691946 189.31711 151.61328 189.04688 L 303.28125 188.70898 L 303.28125 172.70898 L 303.28125 156.70898 L 159.28125 156.70898 L 15.28125 156.70898 z M 316.5332 157.2832 C 315.83679 157.2832 315.19156 157.45429 314.59961 157.79688 C 314.04248 158.13943 313.76562 158.72494 313.76562 159.55273 L 313.76562 187.08398 C 313.76564 187.56923 314.04248 187.94036 314.59961 188.19727 C 315.19156 188.45417 315.83679 188.58203 316.5332 188.58203 C 317.22961 188.58203 317.85694 188.45417 318.41406 188.19727 C 319.00601 187.94036 319.30078 187.56923 319.30078 187.08398 L 319.30078 166.27344 L 326.30078 177.15039 C 326.54452 177.54986 326.82333 177.82002 327.13672 177.96289 C 327.48492 178.10576 327.83148 178.17773 328.17969 178.17773 C 328.56271 178.17773 328.92914 178.10576 329.27734 177.96289 C 329.62555 177.82018 329.93824 177.55001 330.2168 177.15039 L 337.2168 166.53125 L 337.2168 187.08398 C 337.2168 187.56923 337.49561 187.94036 338.05273 188.19727 C 338.64468 188.45417 339.28796 188.58203 339.98438 188.58203 C 340.68079 188.58203 341.30811 188.45417 341.86523 188.19727 C 342.45718 187.94036 342.75195 187.56923 342.75195 187.08398 L 342.75195 159.55273 C 342.75195 158.72494 342.4751 158.13943 341.91797 157.79688 C 341.36084 157.45429 340.71561 157.2832 339.98438 157.2832 C 338.97457 157.2832 338.15607 157.46874 337.5293 157.83984 C 336.93735 158.18237 336.31003 158.85246 335.64844 159.85156 L 328.23242 171.19922 L 320.91992 159.85156 C 320.25833 158.85246 319.61505 158.18237 318.98828 157.83984 C 318.36151 157.46874 317.54299 157.2832 316.5332 157.2832 z M 352.28516 157.2832 C 351.58875 157.2832 350.94351 157.39672 350.35156 157.625 C 349.79443 157.85338 349.51758 158.22449 349.51758 158.73828 L 349.51758 179.29102 C 349.51758 181.03224 349.81235 182.51668 350.4043 183.74414 C 351.03107 184.94306 351.88541 185.9285 352.96484 186.69922 C 354.04428 187.44137 355.29697 187.9836 356.72461 188.32617 C 358.18707 188.6687 359.7544 188.83984 361.42578 188.83984 C 363.09716 188.83984 364.66449 188.6687 366.12695 188.32617 C 367.58941 187.9836 368.86002 187.44137 369.93945 186.69922 C 371.01889 185.9285 371.85336 184.94306 372.44531 183.74414 C 373.07208 182.51668 373.38672 181.03224 373.38672 179.29102 L 373.38672 158.73828 C 373.38672 158.22439 373.08999 157.85328 372.49805 157.625 C 371.94092 157.39672 371.3136 157.2832 370.61719 157.2832 C 369.92078 157.2832 369.2775 157.39672 368.68555 157.625 C 368.12842 157.85338 367.84961 158.22449 367.84961 158.73828 L 367.84961 179.29102 C 367.84961 181.17501 367.27603 182.57289 366.12695 183.48633 C 365.0127 184.37124 363.44537 184.81445 361.42578 184.81445 C 359.44101 184.81445 357.87368 184.37124 356.72461 183.48633 C 355.61036 182.57289 355.05273 181.17501 355.05273 179.29102 L 355.05273 158.73828 C 355.05273 158.22439 354.75797 157.85328 354.16602 157.625 C 353.60889 157.39672 352.98157 157.2832 352.28516 157.2832 z M 382.94336 157.2832 C 382.24694 157.2832 381.60367 157.39672 381.01172 157.625 C 380.45459 157.85338 380.17578 158.22449 380.17578 158.73828 L 380.17578 187.08398 C 380.17578 187.56925 380.43668 187.94036 380.95898 188.19727 C 381.48129 188.45417 382.03891 188.58203 382.63086 188.58203 L 399.29102 188.58203 C 399.84814 188.58203 400.26637 188.36762 400.54492 187.93945 C 400.8235 187.51128 400.96289 187.05558 400.96289 186.57031 C 400.96289 186.0565 400.8235 185.59887 400.54492 185.19922 C 400.26637 184.77105 399.84814 184.55664 399.29102 184.55664 L 385.71094 184.55664 L 385.71094 158.73828 C 385.71094 158.22439 385.41617 157.85328 384.82422 157.625 C 384.26709 157.39672 383.63975 157.2832 382.94336 157.2832 z M 399.07812 157.2832 C 398.45138 157.2832 397.98137 157.51003 397.66797 157.9668 C 397.38942 158.39492 397.25 158.8526 397.25 159.33789 C 397.25 159.90883 397.40733 160.40777 397.7207 160.83594 C 398.0341 161.23556 398.4862 161.43555 399.07812 161.43555 L 407.17383 161.43555 L 407.17383 187.08398 C 407.17383 187.56923 407.45264 187.94036 408.00977 188.19727 C 408.60172 188.45417 409.24502 188.58203 409.94141 188.58203 C 410.63782 188.58203 411.26514 188.45417 411.82227 188.19727 C 412.41422 187.94036 412.71094 187.56923 412.71094 187.08398 L 412.71094 161.43555 L 420.75391 161.43555 C 421.34583 161.43555 421.79793 161.22114 422.11133 160.79297 C 422.4247 160.3648 422.58203 159.86583 422.58203 159.29492 C 422.58203 158.80966 422.4247 158.35202 422.11133 157.92383 C 421.83275 157.49566 421.38065 157.2832 420.75391 157.2832 L 399.07812 157.2832 z M 429.56445 157.2832 C 428.86804 157.2832 428.22281 157.39672 427.63086 157.625 C 427.07373 157.85338 426.79492 158.22449 426.79492 158.73828 L 426.79492 187.08398 C 426.79492 187.56923 427.07373 187.94036 427.63086 188.19727 C 428.22281 188.45417 428.86804 188.58203 429.56445 188.58203 C 430.26084 188.58203 430.88623 188.45417 431.44336 188.19727 C 432.03531 187.94036 432.33203 187.56923 432.33203 187.08398 L 432.33203 158.73828 C 432.33203 158.22439 432.03531 157.85328 431.44336 157.625 C 430.88623 157.39672 430.26084 157.2832 429.56445 157.2832 z M 442.00977 157.2832 C 441.31335 157.2832 440.6681 157.45429 440.07617 157.79688 C 439.51904 158.13943 439.24023 158.72494 439.24023 159.55273 L 439.24023 187.08398 C 439.24023 187.56923 439.51904 187.94036 440.07617 188.19727 C 440.6681 188.45417 441.31335 188.58203 442.00977 188.58203 C 442.70618 188.58203 443.33154 188.45417 443.88867 188.19727 C 444.48062 187.94036 444.77734 187.56923 444.77734 187.08398 L 444.77734 166.27344 L 451.77539 177.15039 C 452.01912 177.54986 452.29795 177.82002 452.61133 177.96289 C 452.95955 178.10576 453.30805 178.17773 453.65625 178.17773 C 454.03929 178.17773 454.40571 178.10576 454.75391 177.96289 C 455.1021 177.82018 455.41478 177.55001 455.69336 177.15039 L 462.69336 166.53125 L 462.69336 187.08398 C 462.69336 187.56923 462.97022 187.94036 463.52734 188.19727 C 464.11929 188.45417 464.76452 188.58203 465.46094 188.58203 C 466.15735 188.58203 466.78467 188.45417 467.3418 188.19727 C 467.93375 187.94036 468.22852 187.56923 468.22852 187.08398 L 468.22852 159.55273 C 468.22852 158.72494 467.94971 158.13943 467.39258 157.79688 C 466.83545 157.45429 466.19218 157.2832 465.46094 157.2832 C 464.45115 157.2832 463.63263 157.46874 463.00586 157.83984 C 462.41391 158.18237 461.78659 158.85246 461.125 159.85156 L 453.70898 171.19922 L 446.39648 159.85156 C 445.73489 158.85246 445.09162 158.18237 444.46484 157.83984 C 443.83807 157.46874 443.01955 157.2832 442.00977 157.2832 z M 486.48438 157.2832 C 484.81298 157.2832 483.26164 157.45431 481.83398 157.79688 C 480.40636 158.13943 479.17156 158.69608 478.12695 159.4668 C 477.08234 160.20897 476.26382 161.19248 475.67188 162.41992 C 475.07992 163.61881 474.7832 165.0888 474.7832 166.83008 L 474.7832 179.29102 C 474.7832 181.03224 475.07992 182.51668 475.67188 183.74414 C 476.26382 184.94306 477.08234 185.9285 478.12695 186.69922 C 479.17156 187.44137 480.40636 187.9836 481.83398 188.32617 C 483.26164 188.6687 484.81298 188.83984 486.48438 188.83984 C 488.12094 188.83984 489.65245 188.6687 491.08008 188.32617 C 492.50773 187.9836 493.74445 187.44137 494.78906 186.69922 C 495.8685 185.9285 496.70297 184.94306 497.29492 183.74414 C 497.92169 182.51668 498.23633 181.03224 498.23633 179.29102 L 498.23633 166.83008 C 498.23633 165.0888 497.92169 163.61881 497.29492 162.41992 C 496.70297 161.19248 495.8685 160.20897 494.78906 159.4668 C 493.74445 158.69608 492.50773 158.13943 491.08008 157.79688 C 489.65245 157.45431 488.12094 157.2832 486.48438 157.2832 z M 507.1875 157.2832 C 506.45626 157.2832 505.86477 157.42548 505.41211 157.71094 C 504.95945 157.99639 504.73242 158.33866 504.73242 158.73828 L 504.73242 187.12695 C 504.73242 187.52658 504.95945 187.86884 505.41211 188.1543 C 505.86477 188.43975 506.45626 188.58203 507.1875 188.58203 L 516.43359 188.58203 C 518.10498 188.58203 519.6544 188.41089 521.08203 188.06836 C 522.50968 187.72581 523.74445 187.18358 524.78906 186.44141 C 525.83367 185.67068 526.65219 184.68524 527.24414 183.48633 C 527.87091 182.25889 528.18555 180.77446 528.18555 179.0332 L 528.18555 166.83008 C 528.18555 165.0888 527.87091 163.61881 527.24414 162.41992 C 526.65219 161.19248 525.83367 160.20897 524.78906 159.4668 C 523.74445 158.69608 522.50968 158.13943 521.08203 157.79688 C 519.6544 157.45431 518.10498 157.2832 516.43359 157.2832 L 507.1875 157.2832 z M 537.07812 157.2832 C 536.4862 157.2832 535.92858 157.41106 535.40625 157.66797 C 534.88394 157.92488 534.62305 158.29598 534.62305 158.78125 L 534.62305 187.08398 C 534.62305 187.56923 534.88394 187.94036 535.40625 188.19727 C 535.92858 188.45417 536.4862 188.58203 537.07812 188.58203 L 555.67188 188.58203 C 556.29865 188.58203 556.75075 188.38207 557.0293 187.98242 C 557.3427 187.55425 557.5 187.09855 557.5 186.61328 C 557.5 186.04237 557.3427 185.55587 557.0293 185.15625 C 556.71592 184.75663 556.26382 184.55664 555.67188 184.55664 L 540.16016 184.55664 L 540.16016 174.70898 L 548.20312 174.70898 C 548.82991 174.70898 549.282 174.52342 549.56055 174.15234 C 549.87395 173.7527 550.03125 173.35276 550.03125 172.95312 C 550.03125 172.46783 549.87395 172.041 549.56055 171.66992 C 549.24717 171.29885 548.79508 171.11328 548.20312 171.11328 L 540.16016 171.11328 L 540.16016 161.30664 L 555.67188 161.30664 C 556.26382 161.30664 556.71592 161.10665 557.0293 160.70703 C 557.3427 160.30736 557.5 159.82284 557.5 159.25195 C 557.5 158.76669 557.3427 158.32348 557.0293 157.92383 C 556.75075 157.49566 556.29865 157.2832 555.67188 157.2832 L 537.07812 157.2832 z M 486.48438 161.30664 C 488.43431 161.30664 489.94791 161.7643 491.02734 162.67773 C 492.1416 163.56262 492.69922 164.94606 492.69922 166.83008 L 492.69922 179.29102 C 492.69922 181.17501 492.1416 182.57289 491.02734 183.48633 C 489.94791 184.37124 488.43431 184.81445 486.48438 184.81445 C 484.49958 184.81445 482.96615 184.37124 481.88672 183.48633 C 480.84211 182.57289 480.32031 181.17501 480.32031 179.29102 L 480.32031 166.83008 C 480.32031 164.94606 480.84211 163.56262 481.88672 162.67773 C 482.96615 161.7643 484.49958 161.30664 486.48438 161.30664 z M 510.26953 161.30664 L 516.43359 161.30664 C 518.41835 161.30664 519.94986 161.7643 521.0293 162.67773 C 522.10873 163.56262 522.64844 164.94606 522.64844 166.83008 L 522.64844 179.0332 C 522.64844 180.91717 522.10873 182.31701 521.0293 183.23047 C 519.94986 184.11538 518.41835 184.55664 516.43359 184.55664 L 510.26953 184.55664 L 510.26953 161.30664 z "
       transform="scale(0.26458334)"
       id="path4793" />
    <path
       style="fill:#4d4d4f;fill-opacity:1;stroke-width:1.33333337"
       d="M 1099.3066 0.26367188 C 1084.8175 0.29455711 1079.7522 0.70946219 1078.9863 1.6875 C 1078.2596 2.6156008 1069.7208 20.776284 1060.0117 42.042969 C 1040.8896 83.927712 1038.9742 87.603117 1037.1914 85.820312 C 1036.5457 85.174542 1027.3268 65.760368 1016.7051 42.677734 L 997.39258 0.70898438 L 969.72266 0.70898438 L 942.05273 0.70898438 L 909.67773 66.708984 C 891.87189 103.00895 877.30053 133.75963 877.29297 135.04297 C 877.28258 137.1586 879.08645 137.375 896.61133 137.375 L 915.93945 137.375 L 941.28125 86.708984 C 955.21837 58.84232 967.14546 36.042969 967.78711 36.042969 C 969.85731 36.042969 971.2899 38.645679 996.60352 88.414062 L 1021.5469 137.45312 L 1038.4141 137.08203 L 1055.2812 136.70898 L 1080.7949 86.740234 C 1094.8283 59.257079 1107.1976 36.210909 1108.2812 35.527344 C 1109.365 34.843627 1111.3218 34.694929 1112.6309 35.197266 C 1114.8705 36.056692 1114.9794 39.08055 1114.4785 86.410156 L 1113.9473 136.70898 L 1133.9473 136.70898 L 1153.9473 136.70898 L 1153.9473 68.708984 L 1153.9473 0.70898438 L 1117.127 0.35546875 C 1110.0134 0.2870593 1104.1364 0.25337679 1099.3066 0.26367188 z M 1045.9473 156.71094 L 1045.5664 171.29102 C 1045.357 179.31057 1045.4902 186.66849 1045.8633 187.64062 C 1046.4141 189.07478 1056.6329 189.34168 1100.2441 189.05859 L 1153.9473 188.71094 L 1153.9473 172.71094 L 1153.9473 156.71094 L 1099.9473 156.71094 L 1045.9473 156.71094 z M 884.84766 157.2832 C 884.15124 157.2832 883.50794 157.45429 882.91602 157.79688 C 882.35889 158.13943 882.08008 158.72494 882.08008 159.55273 L 882.08008 187.08398 C 882.08008 187.56923 882.35889 187.94036 882.91602 188.19727 C 883.50794 188.45417 884.15124 188.58203 884.84766 188.58203 C 885.54407 188.58203 886.17139 188.45417 886.72852 188.19727 C 887.32047 187.94036 887.61523 187.56923 887.61523 187.08398 L 887.61523 166.27344 L 894.61523 177.15039 C 894.85899 177.54986 895.1378 177.82002 895.45117 177.96289 C 895.79939 178.10576 896.1479 178.17773 896.49609 178.17773 C 896.87911 178.17773 897.24358 178.10576 897.5918 177.96289 C 897.93999 177.82018 898.25463 177.55001 898.5332 177.15039 L 905.53125 166.53125 L 905.53125 187.08398 C 905.53125 187.56923 905.81006 187.94036 906.36719 188.19727 C 906.95914 188.45417 907.60241 188.58203 908.29883 188.58203 C 908.99524 188.58203 909.62256 188.45417 910.17969 188.19727 C 910.77164 187.94036 911.06836 187.56923 911.06836 187.08398 L 911.06836 159.55273 C 911.06836 158.72494 910.78955 158.13943 910.23242 157.79688 C 909.67529 157.45429 909.03007 157.2832 908.29883 157.2832 C 907.28904 157.2832 906.47052 157.46874 905.84375 157.83984 C 905.2518 158.18237 904.62644 158.85246 903.96484 159.85156 L 896.54688 171.19922 L 889.23438 159.85156 C 888.57277 158.85246 887.92951 158.18237 887.30273 157.83984 C 886.67596 157.46874 885.85745 157.2832 884.84766 157.2832 z M 929.32227 157.2832 C 927.65088 157.2832 926.10146 157.45431 924.67383 157.79688 C 923.2462 158.13943 922.00948 158.69608 920.96484 159.4668 C 919.92023 160.20897 919.10172 161.19248 918.50977 162.41992 C 917.91782 163.61881 917.62305 165.0888 917.62305 166.83008 L 917.62305 179.29102 C 917.62305 181.03224 917.91782 182.51668 918.50977 183.74414 C 919.10172 184.94306 919.92023 185.9285 920.96484 186.69922 C 922.00948 187.44137 923.2462 187.9836 924.67383 188.32617 C 926.10146 188.6687 927.65088 188.83984 929.32227 188.83984 C 930.95883 188.83984 932.49032 188.6687 933.91797 188.32617 C 935.3456 187.9836 936.58234 187.44137 937.62695 186.69922 C 938.70639 185.9285 939.54282 184.94306 940.13477 183.74414 C 940.76154 182.51668 941.07422 181.03224 941.07422 179.29102 L 941.07422 166.83008 C 941.07422 165.0888 940.76154 163.61881 940.13477 162.41992 C 939.54282 161.19248 938.70639 160.20897 937.62695 159.4668 C 936.58234 158.69608 935.3456 158.13943 933.91797 157.79688 C 932.49032 157.45431 930.95883 157.2832 929.32227 157.2832 z M 950.02734 157.2832 C 949.29611 157.2832 948.70461 157.42548 948.25195 157.71094 C 947.79929 157.99639 947.57227 158.33866 947.57227 158.73828 L 947.57227 187.12695 C 947.57227 187.52658 947.79929 187.86884 948.25195 188.1543 C 948.70461 188.43975 949.29611 188.58203 950.02734 188.58203 L 959.27148 188.58203 C 960.94287 188.58203 962.49229 188.41089 963.91992 188.06836 C 965.34758 187.72581 966.5843 187.18358 967.62891 186.44141 C 968.67352 185.67068 969.49203 184.68524 970.08398 183.48633 C 970.71076 182.25889 971.02344 180.77446 971.02344 179.0332 L 971.02344 166.83008 C 971.02344 165.0888 970.71076 163.61881 970.08398 162.41992 C 969.49203 161.19248 968.67352 160.20897 967.62891 159.4668 C 966.5843 158.69608 965.34758 158.13943 963.91992 157.79688 C 962.49229 157.45431 960.94287 157.2832 959.27148 157.2832 L 950.02734 157.2832 z M 979.91602 157.2832 C 979.32407 157.2832 978.7684 157.41106 978.24609 157.66797 C 977.72379 157.92488 977.46094 158.29598 977.46094 158.78125 L 977.46094 187.08398 C 977.46094 187.56923 977.72379 187.94036 978.24609 188.19727 C 978.7684 188.45417 979.32407 188.58203 979.91602 188.58203 L 998.51172 188.58203 C 999.13849 188.58203 999.59059 188.38207 999.86914 187.98242 C 1000.1825 187.55425 1000.3398 187.09855 1000.3398 186.61328 C 1000.3398 186.04237 1000.1825 185.55587 999.86914 185.15625 C 999.55577 184.75663 999.10367 184.55664 998.51172 184.55664 L 982.99805 184.55664 L 982.99805 174.70898 L 991.04102 174.70898 C 991.66779 174.70898 992.12181 174.52342 992.40039 174.15234 C 992.71376 173.7527 992.86914 173.35276 992.86914 172.95312 C 992.86914 172.46783 992.71376 172.041 992.40039 171.66992 C 992.08699 171.29885 991.63297 171.11328 991.04102 171.11328 L 982.99805 171.11328 L 982.99805 161.30664 L 998.51172 161.30664 C 999.10367 161.30664 999.55577 161.10665 999.86914 160.70703 C 1000.1825 160.30736 1000.3398 159.82284 1000.3398 159.25195 C 1000.3398 158.76669 1000.1825 158.32348 999.86914 157.92383 C 999.59059 157.49566 999.13849 157.2832 998.51172 157.2832 L 979.91602 157.2832 z M 1007.5703 157.2832 C 1006.8739 157.2832 1006.2287 157.45429 1005.6367 157.79688 C 1005.0796 158.13943 1004.8008 158.72494 1004.8008 159.55273 L 1004.8008 187.08398 C 1004.8008 187.56923 1005.0796 187.94036 1005.6367 188.19727 C 1006.2287 188.45417 1006.8739 188.58203 1007.5703 188.58203 C 1008.2667 188.58203 1008.8921 188.45417 1009.4492 188.19727 C 1010.0412 187.94036 1010.3379 187.56923 1010.3379 187.08398 L 1010.3379 166.27344 L 1017.3359 177.15039 C 1017.5797 177.54986 1017.8585 177.82002 1018.1719 177.96289 C 1018.5201 178.10576 1018.8686 178.17773 1019.2168 178.17773 C 1019.5998 178.17773 1019.9663 178.10576 1020.3145 177.96289 C 1020.6626 177.82018 1020.9753 177.55001 1021.2539 177.15039 L 1028.2539 166.53125 L 1028.2539 187.08398 C 1028.2539 187.56923 1028.5308 187.94036 1029.0879 188.19727 C 1029.6798 188.45417 1030.3251 188.58203 1031.0215 188.58203 C 1031.7179 188.58203 1032.3452 188.45417 1032.9023 188.19727 C 1033.4943 187.94036 1033.7891 187.56923 1033.7891 187.08398 L 1033.7891 159.55273 C 1033.7891 158.72494 1033.5103 158.13943 1032.9531 157.79688 C 1032.396 157.45429 1031.7527 157.2832 1031.0215 157.2832 C 1030.0117 157.2832 1029.1932 157.46874 1028.5664 157.83984 C 1027.9745 158.18237 1027.3472 158.85246 1026.6855 159.85156 L 1019.2695 171.19922 L 1011.957 159.85156 C 1011.2954 158.85246 1010.6521 158.18237 1010.0254 157.83984 C 1009.3986 157.46874 1008.5801 157.2832 1007.5703 157.2832 z M 929.32227 161.30664 C 931.27222 161.30664 932.78775 161.7643 933.86719 162.67773 C 934.98144 163.56262 935.53711 164.94606 935.53711 166.83008 L 935.53711 179.29102 C 935.53711 181.17501 934.98144 182.57289 933.86719 183.48633 C 932.78775 184.37124 931.27222 184.81445 929.32227 184.81445 C 927.33751 184.81445 925.806 184.37124 924.72656 183.48633 C 923.68195 182.57289 923.1582 181.17501 923.1582 179.29102 L 923.1582 166.83008 C 923.1582 164.94606 923.68195 163.56262 924.72656 162.67773 C 925.806 161.7643 927.33751 161.30664 929.32227 161.30664 z M 953.10938 161.30664 L 959.27148 161.30664 C 961.25624 161.30664 962.78775 161.7643 963.86719 162.67773 C 964.94662 163.56262 965.48633 164.94606 965.48633 166.83008 L 965.48633 179.0332 C 965.48633 180.91717 964.94662 182.31701 963.86719 183.23047 C 962.78775 184.11538 961.25624 184.55664 959.27148 184.55664 L 953.10938 184.55664 L 953.10938 161.30664 z "
       transform="scale(0.26458334)"
       id="path4747" />
    <path
       style="fill:#0090d8;fill-opacity:1;stroke-width:1.33333337"
       d="M 728.99219 0.04296875 L 729.87109 3.5488281 C 730.67062 6.7343651 730.47134 6.9685239 727.68359 6.1054688 C 711.04479 0.95408612 710.33503 0.9113969 638.61328 0.80859375 L 568.61328 0.70898438 L 568.26758 66.708984 C 568.07671 103.00898 568.20748 133.45835 568.55859 134.375 C 569.05802 135.67882 583.79957 136.03385 636.23828 135.99609 C 718.62915 135.93902 724.63059 135.20246 735.54492 123.82227 C 745.03751 113.92448 747.92238 100.86502 747.9375 67.708984 C 747.94506 53.451397 748.43812 45.375 749.30469 45.375 C 750.05133 45.375 760.74782 65.62501 773.07422 90.375 L 795.48633 135.375 L 827.76172 135.73242 L 860.03906 136.08984 L 870.50586 114.39844 C 876.26253 102.4687 890.94202 72.384688 903.12695 47.542969 C 915.31185 22.701306 925.28125 1.8356112 925.28125 1.1757812 C 925.28125 0.49932141 915.83113 0.13505672 903.61328 0.34179688 L 881.94727 0.70898438 L 875.19727 14.042969 C 871.4849 21.37631 860.42945 44.039649 850.62891 64.408203 C 832.23769 102.63066 830.86336 104.62507 824.57227 102.21094 C 822.74687 101.51048 815.71443 87.624593 782.45508 19.042969 L 773.24219 0.04296875 L 751.11719 0.04296875 L 728.99219 0.04296875 z M 649.66211 33.619141 C 666.11556 33.568873 682.13848 33.954728 687.26367 34.566406 C 696.60731 35.681745 698.35166 36.328384 701.48047 39.830078 C 706.42352 45.362362 708.40456 56.139512 707.64453 73.349609 C 706.87411 90.795379 704.68001 96.593938 697.66211 99.720703 C 693.36244 101.63639 686.43736 102.04097 650.94922 102.45312 C 616.79779 102.84975 609.15994 102.61149 608.5918 101.13086 C 608.21082 100.13745 608.05902 84.636444 608.25586 66.683594 L 608.61328 34.041016 L 642.61328 33.667969 C 644.95081 33.641512 647.31158 33.626322 649.66211 33.619141 z M 691.32422 157.02539 C 690.52334 157.02539 689.7905 157.15325 689.12891 157.41016 C 688.46729 157.66706 688.0331 158.05262 687.82422 158.56641 L 677.42969 186.3125 C 677.39492 186.39807 677.37695 186.52788 677.37695 186.69922 C 677.37695 186.98477 677.48252 187.24047 677.69141 187.46875 C 677.90034 187.69703 678.17915 187.89702 678.52734 188.06836 C 678.87556 188.2396 679.24003 188.36746 679.62305 188.45312 C 680.04089 188.5388 680.44118 188.58203 680.82422 188.58203 C 681.3117 188.58203 681.71199 188.51005 682.02539 188.36719 C 682.37354 188.22445 682.61847 187.98316 682.75781 187.64062 L 684.89844 181.56055 L 697.80078 181.56055 L 699.94141 187.64062 C 700.08069 187.98303 700.30772 188.22432 700.62109 188.36719 C 700.96931 188.51005 701.3696 188.58203 701.82227 188.58203 C 702.20528 188.58203 702.6056 188.5388 703.02344 188.45312 C 703.4413 188.33901 703.80577 188.19673 704.11914 188.02539 C 704.46739 187.854 704.7462 187.65406 704.95508 187.42578 C 705.19873 187.19745 705.32031 186.95613 705.32031 186.69922 C 705.32031 186.61365 705.28634 186.48384 705.2168 186.3125 L 694.875 158.56641 C 694.66609 158.05262 694.21399 157.66706 693.51758 157.41016 C 692.85598 157.15325 692.12508 157.02539 691.32422 157.02539 z M 574.82227 157.2832 C 574.09103 157.2832 573.49954 157.42548 573.04688 157.71094 C 572.5942 157.99639 572.36719 158.33866 572.36719 158.73828 L 572.36719 187.12695 C 572.36719 187.52658 572.5942 187.86884 573.04688 188.1543 C 573.49954 188.43975 574.09103 188.58203 574.82227 188.58203 L 584.06836 188.58203 C 585.73974 188.58203 587.28917 188.41089 588.7168 188.06836 C 590.14445 187.72581 591.37922 187.18358 592.42383 186.44141 C 593.46844 185.67068 594.28696 184.68524 594.87891 183.48633 C 595.50568 182.25889 595.82031 180.77446 595.82031 179.0332 L 595.82031 166.83008 C 595.82031 165.0888 595.50568 163.61881 594.87891 162.41992 C 594.28696 161.19248 593.46844 160.20897 592.42383 159.4668 C 591.37922 158.69608 590.14445 158.13943 588.7168 157.79688 C 587.28917 157.45431 585.73974 157.2832 584.06836 157.2832 L 574.82227 157.2832 z M 605.02539 157.2832 C 604.32897 157.2832 603.6857 157.39672 603.09375 157.625 C 602.53662 157.85338 602.25781 158.22449 602.25781 158.73828 L 602.25781 187.08398 C 602.25781 187.56923 602.53662 187.94036 603.09375 188.19727 C 603.6857 188.45417 604.32897 188.58203 605.02539 188.58203 C 605.72178 188.58203 606.34912 188.45417 606.90625 188.19727 C 607.4982 187.94036 607.79492 187.56923 607.79492 187.08398 L 607.79492 158.73828 C 607.79492 158.22439 607.4982 157.85328 606.90625 157.625 C 606.34912 157.39672 605.72178 157.2832 605.02539 157.2832 z M 625.88086 157.2832 C 624.27912 157.2832 622.78148 157.45431 621.38867 157.79688 C 619.99584 158.13943 618.77703 158.69608 617.73242 159.4668 C 616.68781 160.20897 615.85333 161.19248 615.22656 162.41992 C 614.63461 163.61881 614.33789 165.0888 614.33789 166.83008 L 614.33789 179.29102 C 614.33789 181.03224 614.63461 182.51668 615.22656 183.74414 C 615.81851 184.94306 616.63508 185.9285 617.67969 186.69922 C 618.7243 187.44137 619.96102 187.9836 621.38867 188.32617 C 622.8163 188.6687 624.36573 188.83984 626.03711 188.83984 C 627.67367 188.83984 629.20516 188.6687 630.63281 188.32617 C 632.06044 187.9836 633.29719 187.44137 634.3418 186.69922 C 635.42123 185.9285 636.25766 184.94306 636.84961 183.74414 C 637.47638 182.51668 637.78906 181.03224 637.78906 179.29102 L 637.78906 173.68164 C 637.78906 173.28202 637.63173 172.92536 637.31836 172.61133 C 637.00496 172.29735 636.55289 172.14063 635.96094 172.14062 L 626.97852 172.14062 C 626.38657 172.14064 625.93251 172.34061 625.61914 172.74023 C 625.34056 173.11133 625.20117 173.51128 625.20117 173.93945 C 625.20117 174.42472 625.34056 174.85158 625.61914 175.22266 C 625.93251 175.59373 626.38657 175.7793 626.97852 175.7793 L 632.25195 175.7793 L 632.25195 179.29102 C 632.25195 181.17501 631.69629 182.57289 630.58203 183.48633 C 629.5026 184.37124 627.98707 184.81445 626.03711 184.81445 C 624.05235 184.81445 622.52084 184.37124 621.44141 183.48633 C 620.3968 182.57289 619.875 181.17501 619.875 179.29102 L 619.875 166.83008 C 619.875 164.94606 620.3968 163.56262 621.44141 162.67773 C 622.52084 161.7643 624.05235 161.30664 626.03711 161.30664 C 627.18619 161.30664 628.12618 161.43645 628.85742 161.69336 C 629.62346 161.92172 630.23286 162.24956 630.68555 162.67773 C 631.17311 163.07733 631.53955 163.56188 631.7832 164.13281 C 632.02706 164.6752 632.18241 165.26069 632.25195 165.88867 C 632.28678 166.45966 632.56559 166.85961 633.08789 167.08789 C 633.64502 167.2877 634.29027 167.38672 635.02148 167.38672 C 635.92683 167.38672 636.60593 167.24444 637.05859 166.95898 C 637.54608 166.67353 637.78906 166.08802 637.78906 165.20312 C 637.78906 164.00421 637.49429 162.91975 636.90234 161.94922 C 636.31039 160.95014 635.49188 160.10891 634.44727 159.42383 C 633.40265 158.73873 632.148 158.21092 630.68555 157.83984 C 629.22307 157.46874 627.62189 157.2832 625.88086 157.2832 z M 646.54492 157.2832 C 645.84851 157.2832 645.20523 157.39672 644.61328 157.625 C 644.05615 157.85338 643.77734 158.22449 643.77734 158.73828 L 643.77734 187.08398 C 643.77734 187.56923 644.05615 187.94036 644.61328 188.19727 C 645.20523 188.45417 645.84851 188.58203 646.54492 188.58203 C 647.24134 188.58203 647.86865 188.45417 648.42578 188.19727 C 649.01771 187.94036 649.31445 187.56923 649.31445 187.08398 L 649.31445 158.73828 C 649.31445 158.22439 649.01771 157.85328 648.42578 157.625 C 647.86865 157.39672 647.24134 157.2832 646.54492 157.2832 z M 655.33398 157.2832 C 654.70721 157.2832 654.2372 157.51003 653.92383 157.9668 C 653.64525 158.39492 653.50586 158.8526 653.50586 159.33789 C 653.50586 159.90883 653.66316 160.40777 653.97656 160.83594 C 654.28994 161.23556 654.74203 161.43555 655.33398 161.43555 L 663.42969 161.43555 L 663.42969 187.08398 C 663.42969 187.56923 663.70847 187.94036 664.26562 188.19727 C 664.85756 188.45417 665.5028 188.58203 666.19922 188.58203 C 666.89563 188.58203 667.521 188.45417 668.07812 188.19727 C 668.67008 187.94036 668.9668 187.56923 668.9668 187.08398 L 668.9668 161.43555 L 677.00977 161.43555 C 677.60172 161.43555 678.05574 161.22114 678.36914 160.79297 C 678.68251 160.3648 678.83789 159.86583 678.83789 159.29492 C 678.83789 158.80966 678.68251 158.35202 678.36914 157.92383 C 678.09056 157.49566 677.63654 157.2832 677.00977 157.2832 L 655.33398 157.2832 z M 712.24219 157.2832 C 711.54577 157.2832 710.90054 157.39672 710.30859 157.625 C 709.75147 157.85338 709.47266 158.22449 709.47266 158.73828 L 709.47266 187.08398 C 709.47266 187.56925 709.73551 187.94036 710.25781 188.19727 C 710.78012 188.45417 711.33578 188.58203 711.92773 188.58203 L 728.58984 188.58203 C 729.14697 188.58203 729.5652 188.36762 729.84375 187.93945 C 730.12233 187.51128 730.26172 187.05558 730.26172 186.57031 C 730.26172 186.0565 730.12233 185.59887 729.84375 185.19922 C 729.5652 184.77105 729.14697 184.55664 728.58984 184.55664 L 715.00977 184.55664 L 715.00977 158.73828 C 715.00977 158.22439 714.71304 157.85328 714.12109 157.625 C 713.56397 157.39672 712.93858 157.2832 712.24219 157.2832 z M 745.44922 157.2832 C 745.0662 157.2832 744.66589 157.32449 744.24805 157.41016 C 743.865 157.49572 743.49859 157.62553 743.15039 157.79688 C 742.80214 157.96821 742.52334 158.1682 742.31445 158.39648 C 742.10557 158.62484 742.00195 158.88056 742.00195 159.16602 C 742.00195 159.33725 742.01992 159.46707 742.05469 159.55273 L 752.5 187.29688 C 752.70891 187.81069 753.14505 188.19622 753.80664 188.45312 C 754.46823 188.71002 755.19912 188.83984 756 188.83984 C 756.80086 188.83984 757.53177 188.71002 758.19336 188.45312 C 758.88978 188.19622 759.32589 187.81069 759.5 187.29688 L 769.83984 159.55078 C 769.90939 159.37954 769.94531 159.25168 769.94531 159.16602 C 769.94531 158.90903 769.82373 158.66774 769.58008 158.43945 C 769.37115 158.21117 769.09234 158.01118 768.74414 157.83984 C 768.43077 157.66861 768.06435 157.5388 767.64648 157.45312 C 767.22865 157.33898 766.82833 157.2832 766.44531 157.2832 C 765.99265 157.2832 765.59236 157.35323 765.24414 157.49609 C 764.93082 157.63881 764.70574 157.88206 764.56641 158.22461 L 756 182.63086 L 747.38086 158.22461 C 747.24157 157.88221 746.99859 157.63896 746.65039 157.49609 C 746.33699 157.35323 745.9367 157.2832 745.44922 157.2832 z M 785.38086 157.2832 C 783.70948 157.2832 782.16005 157.45431 780.73242 157.79688 C 779.30479 158.13943 778.07003 158.69608 777.02539 159.4668 C 775.98078 160.20897 775.16226 161.19248 774.57031 162.41992 C 773.97836 163.61881 773.68164 165.0888 773.68164 166.83008 L 773.68164 179.29102 C 773.68164 181.03224 773.97836 182.51668 774.57031 183.74414 C 775.16226 184.94306 775.98078 185.9285 777.02539 186.69922 C 778.07003 187.44137 779.30479 187.9836 780.73242 188.32617 C 782.16005 188.6687 783.70948 188.83984 785.38086 188.83984 C 787.01742 188.83984 788.55086 188.6687 789.97852 188.32617 C 791.40614 187.9836 792.64094 187.44137 793.68555 186.69922 C 794.76498 185.9285 795.60141 184.94306 796.19336 183.74414 C 796.82013 182.51668 797.13281 181.03224 797.13281 179.29102 L 797.13281 166.83008 C 797.13281 165.0888 796.82013 163.61881 796.19336 162.41992 C 795.60141 161.19248 794.76498 160.20897 793.68555 159.4668 C 792.64094 158.69608 791.40614 158.13943 789.97852 157.79688 C 788.55086 157.45431 787.01742 157.2832 785.38086 157.2832 z M 806.40039 157.2832 C 805.70397 157.2832 805.05875 157.39672 804.4668 157.625 C 803.90967 157.85338 803.63086 158.22449 803.63086 158.73828 L 803.63086 187.08398 C 803.63086 187.56923 803.90967 187.94036 804.4668 188.19727 C 805.05875 188.45417 805.70397 188.58203 806.40039 188.58203 C 807.09678 188.58203 807.72217 188.45417 808.2793 188.19727 C 808.87125 187.94036 809.16797 187.56923 809.16797 187.08398 L 809.16797 158.73828 C 809.16797 158.22439 808.87125 157.85328 808.2793 157.625 C 807.72217 157.39672 807.09678 157.2832 806.40039 157.2832 z M 827.30664 157.2832 C 825.73972 157.2832 824.24208 157.45431 822.81445 157.79688 C 821.42162 158.13943 820.18685 158.69608 819.10742 159.4668 C 818.06281 160.20897 817.22638 161.19248 816.59961 162.41992 C 816.00766 163.61881 815.71094 165.0888 815.71094 166.83008 L 815.71094 179.29102 C 815.71094 181.03227 816.00766 182.5167 816.59961 183.74414 C 817.22638 184.94306 818.06281 185.9285 819.10742 186.69922 C 820.15203 187.44139 821.36889 187.98362 822.76172 188.32617 C 824.18935 188.6687 825.68699 188.83984 827.25391 188.83984 C 829.02976 188.83984 830.64885 188.65428 832.11133 188.2832 C 833.57378 187.88358 834.82844 187.32693 835.87305 186.61328 C 836.91766 185.89966 837.71826 185.05649 838.27539 184.08594 C 838.86734 183.08686 839.16211 182.00237 839.16211 180.83203 C 839.16211 179.89005 838.93704 179.26322 838.48438 178.94922 C 838.0317 178.63522 837.31676 178.47656 836.3418 178.47656 C 835.57574 178.47656 834.95037 178.59203 834.46289 178.82031 C 833.97531 179.0201 833.6965 179.40565 833.62695 179.97656 C 833.55741 180.46185 833.45184 180.98964 833.3125 181.56055 C 833.20803 182.10288 832.94714 182.6163 832.5293 183.10156 C 832.14628 183.58683 831.55479 184.0012 830.75391 184.34375 C 829.98785 184.65775 828.94426 184.81445 827.62109 184.81445 C 825.53187 184.81445 823.94665 184.37124 822.86719 183.48633 C 821.78775 182.57289 821.24805 181.17501 821.24805 179.29102 L 821.24805 166.83008 C 821.24805 164.94606 821.78775 163.56262 822.86719 162.67773 C 823.94665 161.7643 825.49605 161.30664 827.51562 161.30664 C 828.87362 161.30664 829.93511 161.47774 830.70117 161.82031 C 831.50205 162.16284 832.11146 162.57723 832.5293 163.0625 C 832.94709 163.51922 833.2259 164.02014 833.36523 164.5625 C 833.50457 165.07634 833.59218 165.5176 833.62695 165.88867 C 833.66178 166.40249 833.92267 166.78801 834.41016 167.04492 C 834.89764 167.27321 835.55885 167.38672 836.39453 167.38672 C 837.3347 167.38672 838.0317 167.24444 838.48438 166.95898 C 838.93704 166.64498 839.16211 166.00374 839.16211 165.0332 C 839.16211 163.89141 838.88526 162.84826 838.32812 161.90625 C 837.771 160.96424 836.96844 160.15185 835.92383 159.4668 C 834.87922 158.78169 833.62651 158.25391 832.16406 157.88281 C 830.70159 157.48319 829.08249 157.2832 827.30664 157.2832 z M 846.78906 157.2832 C 846.19711 157.2832 845.64145 157.41106 845.11914 157.66797 C 844.59684 157.92488 844.33398 158.29598 844.33398 158.78125 L 844.33398 187.08398 C 844.33398 187.56923 844.59684 187.94036 845.11914 188.19727 C 845.64145 188.45417 846.19711 188.58203 846.78906 188.58203 L 865.38281 188.58203 C 866.00956 188.58203 866.46361 188.38207 866.74219 187.98242 C 867.05556 187.55425 867.21094 187.09855 867.21094 186.61328 C 867.21094 186.04237 867.05556 185.55587 866.74219 185.15625 C 866.42881 184.75663 865.97476 184.55664 865.38281 184.55664 L 849.87109 184.55664 L 849.87109 174.70898 L 857.91406 174.70898 C 858.54083 174.70898 858.99489 174.52342 859.27344 174.15234 C 859.58684 173.7527 859.74219 173.35276 859.74219 172.95312 C 859.74219 172.46783 859.58684 172.041 859.27344 171.66992 C 858.96006 171.29885 858.50601 171.11328 857.91406 171.11328 L 849.87109 171.11328 L 849.87109 161.30664 L 865.38281 161.30664 C 865.97476 161.30664 866.42881 161.10665 866.74219 160.70703 C 867.05556 160.30736 867.21094 159.82284 867.21094 159.25195 C 867.21094 158.76669 867.05556 158.32348 866.74219 157.92383 C 866.46364 157.49566 866.00958 157.2832 865.38281 157.2832 L 846.78906 157.2832 z M 577.9043 161.30664 L 584.06836 161.30664 C 586.05312 161.30664 587.58463 161.7643 588.66406 162.67773 C 589.7435 163.56262 590.2832 164.94606 590.2832 166.83008 L 590.2832 179.0332 C 590.2832 180.91717 589.7435 182.31701 588.66406 183.23047 C 587.58463 184.11538 586.05312 184.55664 584.06836 184.55664 L 577.9043 184.55664 L 577.9043 161.30664 z M 785.38086 161.30664 C 787.33082 161.30664 788.84635 161.7643 789.92578 162.67773 C 791.04004 163.56262 791.59766 164.94606 791.59766 166.83008 L 791.59766 179.29102 C 791.59766 181.17501 791.04004 182.57289 789.92578 183.48633 C 788.84635 184.37124 787.33082 184.81445 785.38086 184.81445 C 783.3961 184.81445 781.86459 184.37124 780.78516 183.48633 C 779.74055 182.57289 779.21875 181.17501 779.21875 179.29102 L 779.21875 166.83008 C 779.21875 164.94606 779.74055 163.56262 780.78516 162.67773 C 781.86459 161.7643 783.3961 161.30664 785.38086 161.30664 z M 691.32422 163.23438 L 696.54688 177.91992 L 686.09961 177.91992 L 691.32422 163.23438 z "
       transform="scale(0.26458334)"
       id="path4717" />
  </g>
</svg>
