<?xml version="1.0" encoding="UTF-8" standalone="no"?>
<svg
   xmlns:dc="http://purl.org/dc/elements/1.1/"
   xmlns:cc="http://creativecommons.org/ns#"
   xmlns:rdf="http://www.w3.org/1999/02/22-rdf-syntax-ns#"
   xmlns:svg="http://www.w3.org/2000/svg"
   xmlns="http://www.w3.org/2000/svg"
   id="svg8"
   version="1.1"
   viewBox="0 0 305.31519 50.048378"
   height="50.048378mm"
   width="305.31519mm">
  <defs
     id="defs2" />
  <metadata
     id="metadata5">
    <rdf:RDF>
      <cc:Work
         rdf:about="">
        <dc:format>image/svg+xml</dc:format>
        <dc:type
           rdf:resource="http://purl.org/dc/dcmitype/StillImage" />
        <dc:title></dc:title>
      </cc:Work>
    </rdf:RDF>
  </metadata>
  <path
     id="path44"
     d="M 60.687253,0 60.181341,0.79943443 C 59.903134,1.2390544 57.574023,6.2024524 55.005429,11.829252 c -2.568588,5.626811 -4.832784,10.436991 -5.031735,10.689271 -0.296823,0.37638 -0.437957,0.37638 -0.785482,0 -0.232928,-0.25228 -2.519775,-5.06246 -5.082376,-10.689271 -2.5626,-5.6267996 -4.889711,-10.5875732 -5.17126,-11.02413315 -0.5026,-0.77935008 -0.639548,-0.79375003 -7.516339,-0.79375003 -5.181107,0 -7.095636,0.11460995 -7.355106,0.44079998 -0.80406,1.0108 -17.3511689,35.2940402 -17.173629,35.5812912 0.1066006,0.172481 2.4860722,0.313676 5.287533,0.313676 h 5.093229 l 6.704501,-13.405383 c 3.687518,-7.373045 6.902754,-13.4026661 7.144784,-13.3986661 0.242038,0.0038 3.460192,5.9967881 7.1515,13.3175341 l 6.711736,13.310298 h 4.576982 4.577498 l 6.572726,-13.05295 c 3.614833,-7.179035 6.764825,-13.2602438 7.00009,-13.5139038 0.235265,-0.2536799 0.770043,-0.41255 1.188558,-0.35295 l 0.761193,0.1085205 v 13.4053833 13.4059 h 5.291667 5.291667 V 18.179252 0.18758546 L 70.464952,0.09353434 Z"
     style="fill:#4d4d4f;fill-opacity:1;stroke-width:0.35277781" />
  <path
     id="path42"
     d="m 131.40283,0.06976319 c -3.8335,0.0081609 -5.17326,0.11791868 -5.37486,0.3767212 -0.19128,0.24556001 -2.44625,5.05057391 -5.01158,10.67738461 -4.99149,10.948355 -5.57154,12.060805 -6.03839,11.591024 -0.16522,-0.16626 -2.59755,-5.302937 -5.40536,-11.414807 L 104.46753,0.18758546 H 94.471754 84.4765 L 84.384514,17.826303 c -0.05045,9.701384 -0.01429,17.841584 0.08062,18.089335 0.131601,0.343781 1.409401,0.427455 5.383652,0.352949 l 5.211051,-0.09767 V 22.765536 c 0,-13.1402957 0.01378,-13.4074175 0.705385,-13.4958174 0.388048,-0.04962 0.88579,0.029587 1.106392,0.1762167 0.220588,0.14663 3.451116,6.2637977 7.178886,13.5940027 l 6.77788,13.327868 4.46278,-0.0987 4.46277,-0.09819 6.75721,-13.225032 c 3.71634,-7.273695 6.98853,-13.3713279 7.27191,-13.5500778 0.28338,-0.1787001 0.7988,-0.216109 1.14515,-0.083199 0.59258,0.2273898 0.62137,1.0274518 0.48886,13.5500778 l -0.14056,13.308231 h 5.29167 5.29166 V 18.179252 0.18758546 l -9.74204,-0.09353435 c -1.88232,-0.0181025 -3.43711,-0.02700824 -4.71496,-0.02428792 z"
     style="fill:#4d4d4f;fill-opacity:1;stroke-width:0.35277781" />
  <path
     id="path40"
     d="M 4.0431642,41.462585 2.0283,45.34297 C 0.92033,47.477279 0.008,49.422861 0,49.666219 c -0.01115,0.352783 8.1205776,0.423934 40.114348,0.352436 l 40.128818,-0.0894 V 45.695919 41.462585 H 42.143165 Z"
     style="fill:#4d4d4f;fill-opacity:1;stroke-width:0.35277781" />
  <path
     id="path107"
     d="m 290.85821,0.06976319 c -3.83357,0.0081717 -5.17377,0.11794869 -5.37641,0.3767212 -0.19227,0.24556001 -2.4515,5.05057421 -5.02036,10.67738461 -5.05939,11.082005 -5.56618,12.054456 -6.03788,11.582756 -0.17084,-0.17086 -2.61,-5.307527 -5.42033,-11.414808 L 263.89346,0.18758546 h -7.321 -7.321 L 240.68557,17.650086 c -4.71113,9.604366 -8.56647,17.740484 -8.56847,18.080034 -0.003,0.55976 0.47453,0.617016 5.11132,0.617016 h 5.1139 l 6.70502,-13.405383 c 3.68753,-7.373055 6.84324,-13.4053839 7.01301,-13.4053839 0.54774,0 0.92678,0.6886339 7.62434,13.8565189 l 6.5996,12.974918 4.46278,-0.09819 4.46275,-0.0987 6.7505,-13.220898 c 3.71301,-7.271585 6.98572,-13.3692178 7.27242,-13.5500777 0.28676,-0.1809001 0.80449,-0.2202431 1.15086,-0.087333 0.59256,0.2273898 0.62137,1.0274517 0.48884,13.5500777 l -0.14054,13.308231 h 5.29166 5.29167 V 18.179252 0.18758546 L 295.57319,0.09405111 C 293.69105,0.07595112 292.1361,0.06703928 290.85821,0.06976319 Z"
     style="fill:#4d4d4f;fill-opacity:1;stroke-width:0.35277781" />
  <path
     id="path105"
     d="m 276.74023,41.463104 -0.10078,3.857646 c -0.0554,2.12184 -0.0201,4.068623 0.0786,4.325832 0.14573,0.379455 2.84945,0.450072 14.38825,0.375171 l 14.20897,-0.09198 v -4.233334 -4.233333 h -14.2875 z"
     style="fill:#4d4d4f;fill-opacity:1;stroke-width:0.35277781" />
  <path
     d="m 171.88977,8.8950646 c 4.35331,-0.013301 8.59271,0.088791 9.94875,0.2506306 2.47217,0.2951001 2.93369,0.46619 3.76153,1.3926798 1.30784,1.46375 1.83199,4.315205 1.6309,8.86871 -0.20384,4.61586 -0.78436,6.150062 -2.64118,6.977352 -1.13762,0.506859 -2.96988,0.613904 -12.35945,0.722952 -9.0359,0.104941 -11.05675,0.0419 -11.20707,-0.349848 -0.1008,-0.26284 -0.14096,-4.364148 -0.0889,-9.114173 l 0.0946,-8.6366823 8.99584,-0.098702 c 0.61847,-0.007 1.24309,-0.01102 1.865,-0.01292 z m 20.98942,-8.88369578 0.23254,0.92759197 c 0.21154,0.84284001 0.15882,0.90479451 -0.57878,0.67644451 -4.40234,-1.36297001 -4.59014,-1.37426486 -23.56652,-1.40146486 L 150.4456,0.18758544 150.3541,17.650086 c -0.0505,9.604374 -0.0159,17.66077 0.077,17.9033 0.13214,0.344969 4.03251,0.438904 17.90692,0.428914 21.79925,-0.01511 23.38713,-0.209982 26.27488,-3.22099 2.51158,-2.618791 3.27487,-6.074106 3.27887,-14.846641 0.002,-3.77232 0.13246,-5.9092 0.36174,-5.9092 0.19755,0 3.02766,5.357815 6.28902,11.90625 l 5.92987,11.906251 8.53953,0.09457 8.54005,0.09457 2.76934,-5.739183 c 1.52312,-3.15641 5.40707,-11.116138 8.63099,-17.688843 3.22393,-6.5726906 5.86166,-12.09340588 5.86166,-12.2679859 0,-0.17897999 -2.50034,-0.27535836 -5.73298,-0.22065836 l -5.73247,0.0971517 -1.78593,3.52795016 c -0.98223,1.9402799 -3.90732,7.9366214 -6.50038,13.3258014 -4.86601,10.113026 -5.22964,10.640713 -6.89415,10.001975 -0.48298,-0.18533 -2.34364,-3.859305 -11.14351,-22.0048597 L 204.587,0.01136882 h -5.85391 z"
     style="fill:#0090d8;fill-opacity:1;stroke-width:0.35277781"
     id="path83" />
  <path
     d="m 84.771574,44.763886 v 5.067426 h -1.635856 v -8.230158 h 1.384186 l 2.604787,4.479558 2.604786,-4.479558 h 1.384186 v 8.230158 H 89.477807 V 44.763886 L 87.753866,47.7385 h -1.258351 z"
     style="font-style:normal;font-variant:normal;font-weight:normal;font-stretch:normal;font-size:12.1634264px;line-height:1.25;font-family:CoreSansD55BoldW01-Regular;-inkscape-font-specification:'CoreSansD55BoldW01-Regular, Normal';font-variant-ligatures:normal;font-variant-caps:normal;font-variant-numeric:normal;font-feature-settings:normal;text-align:start;letter-spacing:0px;word-spacing:0px;writing-mode:lr-tb;text-anchor:start;fill:#4d4d4f;fill-opacity:1;stroke:none;stroke-width:0.26458335"
     id="path125" />
  <path
     d="m 95.902082,48.596788 q 0.817928,0 1.170267,-0.576111 0.364921,-0.576111 0.364921,-1.751847 v -4.667676 h 1.64844 v 5.184999 q 0,0.728957 -0.213919,1.316825 -0.21392,0.587868 -0.629176,0.999376 -0.402672,0.411508 -0.994097,0.646656 -0.591425,0.22339 -1.346436,0.22339 -0.75501,0 -1.346435,-0.22339 -0.591425,-0.235148 -1.006682,-0.646656 -0.402671,-0.411508 -0.616591,-0.999376 -0.21392,-0.587868 -0.21392,-1.316825 v -5.184999 h 1.64844 v 4.667676 q 0,1.175736 0.352338,1.751847 0.364923,0.576111 1.18285,0.576111 z"
     style="font-style:normal;font-variant:normal;font-weight:normal;font-stretch:normal;font-size:12.1634264px;line-height:1.25;font-family:CoreSansD55BoldW01-Regular;-inkscape-font-specification:'CoreSansD55BoldW01-Regular, Normal';font-variant-ligatures:normal;font-variant-caps:normal;font-variant-numeric:normal;font-feature-settings:normal;text-align:start;letter-spacing:0px;word-spacing:0px;writing-mode:lr-tb;text-anchor:start;fill:#4d4d4f;fill-opacity:1;stroke:none;stroke-width:0.26458335"
     id="path127" />
  <path
     d="m 100.70839,41.601154 h 1.64844 V 48.4557 h 3.92606 v 1.375612 h -5.5745 z"
     style="font-style:normal;font-variant:normal;font-weight:normal;font-stretch:normal;font-size:12.1634264px;line-height:1.25;font-family:CoreSansD55BoldW01-Regular;-inkscape-font-specification:'CoreSansD55BoldW01-Regular, Normal';font-variant-ligatures:normal;font-variant-caps:normal;font-variant-numeric:normal;font-feature-settings:normal;text-align:start;letter-spacing:0px;word-spacing:0px;writing-mode:lr-tb;text-anchor:start;fill:#4d4d4f;fill-opacity:1;stroke:none;stroke-width:0.26458335"
     id="path129" />
  <path
     d="m 105.74278,41.601154 h 6.3295 v 1.375612 h -2.34053 v 6.854546 h -1.64844 v -6.854546 h -2.34053 z"
     style="font-style:normal;font-variant:normal;font-weight:normal;font-stretch:normal;font-size:12.1634264px;line-height:1.25;font-family:CoreSansD55BoldW01-Regular;-inkscape-font-specification:'CoreSansD55BoldW01-Regular, Normal';font-variant-ligatures:normal;font-variant-caps:normal;font-variant-numeric:normal;font-feature-settings:normal;text-align:start;letter-spacing:0px;word-spacing:0px;writing-mode:lr-tb;text-anchor:start;fill:#4d4d4f;fill-opacity:1;stroke:none;stroke-width:0.26458335"
     id="path131" />
  <path
     d="m 114.79406,49.831312 h -1.64844 v -8.230158 h 1.64844 z"
     style="font-style:normal;font-variant:normal;font-weight:normal;font-stretch:normal;font-size:12.1634264px;line-height:1.25;font-family:CoreSansD55BoldW01-Regular;-inkscape-font-specification:'CoreSansD55BoldW01-Regular, Normal';font-variant-ligatures:normal;font-variant-caps:normal;font-variant-numeric:normal;font-feature-settings:normal;text-align:start;letter-spacing:0px;word-spacing:0px;writing-mode:lr-tb;text-anchor:start;fill:#4d4d4f;fill-opacity:1;stroke:none;stroke-width:0.26458335"
     id="path133" />
  <path
     d="m 118.19652,44.763886 v 5.067426 h -1.63585 v -8.230158 h 1.38417 l 2.60479,4.479558 2.60479,-4.479558 h 1.38419 v 8.230158 h -1.63586 v -5.067426 l -1.72394,2.974614 h -1.25835 z"
     style="font-style:normal;font-variant:normal;font-weight:normal;font-stretch:normal;font-size:12.1634264px;line-height:1.25;font-family:CoreSansD55BoldW01-Regular;-inkscape-font-specification:'CoreSansD55BoldW01-Regular, Normal';font-variant-ligatures:normal;font-variant-caps:normal;font-variant-numeric:normal;font-feature-settings:normal;text-align:start;letter-spacing:0px;word-spacing:0px;writing-mode:lr-tb;text-anchor:start;fill:#4d4d4f;fill-opacity:1;stroke:none;stroke-width:0.26458335"
     id="path135" />
  <path
     d="m 132.51065,46.692095 q 0,0.728956 -0.2265,1.328582 -0.21392,0.599626 -0.64176,1.034649 -0.41525,0.435021 -1.01926,0.681926 -0.60401,0.235148 -1.37161,0.235148 -0.76759,0 -1.3716,-0.235148 -0.60401,-0.246905 -1.03184,-0.681926 -0.41526,-0.435023 -0.64177,-1.034649 -0.21391,-0.599626 -0.21391,-1.328582 v -1.951724 q 0,-0.717199 0.21391,-1.316825 0.22651,-0.611383 0.64177,-1.046406 0.42783,-0.435021 1.03184,-0.670169 0.60401,-0.246905 1.3716,-0.246905 0.7676,0 1.37161,0.246905 0.60401,0.235148 1.01926,0.670169 0.42784,0.435023 0.64176,1.046406 0.2265,0.599626 0.2265,1.316825 z m -1.64844,-1.763605 q 0,-1.034649 -0.42784,-1.563731 -0.42783,-0.529081 -1.18285,-0.529081 -0.755,0 -1.18284,0.529081 -0.42785,0.529082 -0.42785,1.563731 v 1.575487 q 0,1.034648 0.42785,1.56373 0.42784,0.529081 1.18284,0.529081 0.75502,0 1.18285,-0.529081 0.42784,-0.529082 0.42784,-1.56373 z"
     style="font-style:normal;font-variant:normal;font-weight:normal;font-stretch:normal;font-size:12.1634264px;line-height:1.25;font-family:CoreSansD55BoldW01-Regular;-inkscape-font-specification:'CoreSansD55BoldW01-Regular, Normal';font-variant-ligatures:normal;font-variant-caps:normal;font-variant-numeric:normal;font-feature-settings:normal;text-align:start;letter-spacing:0px;word-spacing:0px;writing-mode:lr-tb;text-anchor:start;fill:#4d4d4f;fill-opacity:1;stroke:none;stroke-width:0.26458335"
     id="path137" />
  <path
     d="m 138.41586,44.916733 q 0,-1.022892 -0.42784,-1.481429 -0.41525,-0.470295 -1.2206,-0.470295 h -1.15768 v 5.502448 h 1.15768 q 0.80535,0 1.2206,-0.458537 0.42784,-0.470295 0.42784,-1.493186 z m 1.64844,1.787119 q 0,0.728957 -0.2265,1.305068 -0.22651,0.576111 -0.65434,0.987619 -0.42785,0.39975 -1.03185,0.62314 -0.59142,0.211633 -1.33386,0.211633 h -2.85645 v -8.230158 h 2.85645 q 0.74244,0 1.33386,0.22339 0.604,0.211633 1.03185,0.623141 0.42783,0.399751 0.65434,0.987619 0.2265,0.576111 0.2265,1.293311 z"
     style="font-style:normal;font-variant:normal;font-weight:normal;font-stretch:normal;font-size:12.1634264px;line-height:1.25;font-family:CoreSansD55BoldW01-Regular;-inkscape-font-specification:'CoreSansD55BoldW01-Regular, Normal';font-variant-ligatures:normal;font-variant-caps:normal;font-variant-numeric:normal;font-feature-settings:normal;text-align:start;letter-spacing:0px;word-spacing:0px;writing-mode:lr-tb;text-anchor:start;fill:#4d4d4f;fill-opacity:1;stroke:none;stroke-width:0.26458335"
     id="path139" />
  <path
     d="m 141.58022,41.601154 h 5.5745 v 1.363855 h -3.92606 v 1.951724 h 3.41013 v 1.363854 h -3.41013 v 2.18687 h 3.92606 v 1.363855 h -5.5745 z"
     style="font-style:normal;font-variant:normal;font-weight:normal;font-stretch:normal;font-size:12.1634264px;line-height:1.25;font-family:CoreSansD55BoldW01-Regular;-inkscape-font-specification:'CoreSansD55BoldW01-Regular, Normal';font-variant-ligatures:normal;font-variant-caps:normal;font-variant-numeric:normal;font-feature-settings:normal;text-align:start;letter-spacing:0px;word-spacing:0px;writing-mode:lr-tb;text-anchor:start;fill:#4d4d4f;fill-opacity:1;stroke:none;stroke-width:0.26458335"
     id="path141" />
  <path
     d="m 156.28346,44.916733 q 0,-1.022892 -0.42784,-1.481429 -0.41526,-0.470295 -1.2206,-0.470295 h -1.15768 v 5.502448 h 1.15768 q 0.80534,0 1.2206,-0.458537 0.42784,-0.470295 0.42784,-1.493186 z m 1.64844,1.787119 q 0,0.728957 -0.2265,1.305068 -0.2265,0.576111 -0.65435,0.987619 -0.42783,0.39975 -1.03184,0.62314 -0.59143,0.211633 -1.33385,0.211633 h -2.85646 v -8.230158 h 2.85646 q 0.74242,0 1.33385,0.22339 0.60401,0.211633 1.03184,0.623141 0.42785,0.399751 0.65435,0.987619 0.2265,0.576111 0.2265,1.293311 z"
     style="font-style:normal;font-variant:normal;font-weight:normal;font-stretch:normal;font-size:12.1634264px;line-height:1.25;font-family:CoreSansD55BoldW01-Regular;-inkscape-font-specification:'CoreSansD55BoldW01-Regular, Normal';font-variant-ligatures:normal;font-variant-caps:normal;font-variant-numeric:normal;font-feature-settings:normal;text-align:start;letter-spacing:0px;word-spacing:0px;writing-mode:lr-tb;text-anchor:start;fill:#0090d8;fill-opacity:1;stroke:none;stroke-width:0.26458335"
     id="path143" />
  <path
     d="m 161.14659,49.831312 h -1.64844 v -8.230158 h 1.64844 z"
     style="font-style:normal;font-variant:normal;font-weight:normal;font-stretch:normal;font-size:12.1634264px;line-height:1.25;font-family:CoreSansD55BoldW01-Regular;-inkscape-font-specification:'CoreSansD55BoldW01-Regular, Normal';font-variant-ligatures:normal;font-variant-caps:normal;font-variant-numeric:normal;font-feature-settings:normal;text-align:start;letter-spacing:0px;word-spacing:0px;writing-mode:lr-tb;text-anchor:start;fill:#0090d8;fill-opacity:1;stroke:none;stroke-width:0.26458335"
     id="path145" />
  <path
     d="m 164.30996,46.503977 q 0,1.034648 0.42784,1.56373 0.42785,0.529081 1.23319,0.529081 0.7676,0 1.11993,-0.49381 0.35234,-0.505566 0.42784,-1.434398 h -1.62327 v -1.234524 h 3.27171 v 1.269796 q 0,0.764229 -0.23909,1.375612 -0.2265,0.599626 -0.65434,1.02289 -0.41526,0.423266 -1.01926,0.646656 -0.60401,0.22339 -1.34644,0.22339 -0.74242,0 -1.34644,-0.235148 -0.59142,-0.246905 -1.01925,-0.681926 -0.41527,-0.435023 -0.65435,-1.034649 -0.2265,-0.611383 -0.2265,-1.328582 v -1.951724 q 0,-0.717199 0.2265,-1.316825 0.23908,-0.611383 0.65435,-1.046406 0.42783,-0.435021 1.01925,-0.670169 0.60402,-0.246905 1.34644,-0.246905 0.65435,0 1.20802,0.188118 0.55367,0.188118 0.96893,0.540839 0.42784,0.352721 0.69209,0.858288 0.26425,0.49381 0.36492,1.105192 l -1.63585,0.22339 q -0.10066,-0.752471 -0.51593,-1.140464 -0.40267,-0.399751 -1.01926,-0.399751 -0.80534,0 -1.23319,0.529081 -0.42784,0.529082 -0.42784,1.563731 z"
     style="font-style:normal;font-variant:normal;font-weight:normal;font-stretch:normal;font-size:12.1634264px;line-height:1.25;font-family:CoreSansD55BoldW01-Regular;-inkscape-font-specification:'CoreSansD55BoldW01-Regular, Normal';font-variant-ligatures:normal;font-variant-caps:normal;font-variant-numeric:normal;font-feature-settings:normal;text-align:start;letter-spacing:0px;word-spacing:0px;writing-mode:lr-tb;text-anchor:start;fill:#0090d8;fill-opacity:1;stroke:none;stroke-width:0.26458335"
     id="path147" />
  <path
     d="m 172.28005,49.831312 h -1.64844 v -8.230158 h 1.64844 z"
     style="font-style:normal;font-variant:normal;font-weight:normal;font-stretch:normal;font-size:12.1634264px;line-height:1.25;font-family:CoreSansD55BoldW01-Regular;-inkscape-font-specification:'CoreSansD55BoldW01-Regular, Normal';font-variant-ligatures:normal;font-variant-caps:normal;font-variant-numeric:normal;font-feature-settings:normal;text-align:start;letter-spacing:0px;word-spacing:0px;writing-mode:lr-tb;text-anchor:start;fill:#0090d8;fill-opacity:1;stroke:none;stroke-width:0.26458335"
     id="path149" />
  <path
     d="m 173.35456,41.601154 h 6.32952 v 1.375612 h -2.34054 v 6.854546 h -1.64844 v -6.854546 h -2.34054 z"
     style="font-style:normal;font-variant:normal;font-weight:normal;font-stretch:normal;font-size:12.1634264px;line-height:1.25;font-family:CoreSansD55BoldW01-Regular;-inkscape-font-specification:'CoreSansD55BoldW01-Regular, Normal';font-variant-ligatures:normal;font-variant-caps:normal;font-variant-numeric:normal;font-feature-settings:normal;text-align:start;letter-spacing:0px;word-spacing:0px;writing-mode:lr-tb;text-anchor:start;fill:#0090d8;fill-opacity:1;stroke:none;stroke-width:0.26458335"
     id="path151" />
  <path
     d="m 184.37457,48.150008 h -2.91937 l -0.55367,1.681304 h -1.74911 l 2.91938,-8.230158 h 1.68619 l 2.91937,8.230158 h -1.7491 z m -2.49153,-1.316825 h 2.0637 l -1.03185,-3.209761 z"
     style="font-style:normal;font-variant:normal;font-weight:normal;font-stretch:normal;font-size:12.1634264px;line-height:1.25;font-family:CoreSansD55BoldW01-Regular;-inkscape-font-specification:'CoreSansD55BoldW01-Regular, Normal';font-variant-ligatures:normal;font-variant-caps:normal;font-variant-numeric:normal;font-feature-settings:normal;text-align:start;letter-spacing:0px;word-spacing:0px;writing-mode:lr-tb;text-anchor:start;fill:#0090d8;fill-opacity:1;stroke:none;stroke-width:0.26458335"
     id="path153" />
  <path
     d="m 187.58868,41.601154 h 1.64844 V 48.4557 h 3.92606 v 1.375612 h -5.5745 z"
     style="font-style:normal;font-variant:normal;font-weight:normal;font-stretch:normal;font-size:12.1634264px;line-height:1.25;font-family:CoreSansD55BoldW01-Regular;-inkscape-font-specification:'CoreSansD55BoldW01-Regular, Normal';font-variant-ligatures:normal;font-variant-caps:normal;font-variant-numeric:normal;font-feature-settings:normal;text-align:start;letter-spacing:0px;word-spacing:0px;writing-mode:lr-tb;text-anchor:start;fill:#0090d8;fill-opacity:1;stroke:none;stroke-width:0.26458335"
     id="path155" />
  <path
     d="m 202.28818,41.601154 h 1.76169 l -2.81869,8.230158 h -1.69879 l -2.81869,-8.230158 h 1.76169 l 1.91269,5.890442 z"
     style="font-style:normal;font-variant:normal;font-weight:normal;font-stretch:normal;font-size:12.1634264px;line-height:1.25;font-family:CoreSansD55BoldW01-Regular;-inkscape-font-specification:'CoreSansD55BoldW01-Regular, Normal';font-variant-ligatures:normal;font-variant-caps:normal;font-variant-numeric:normal;font-feature-settings:normal;text-align:start;letter-spacing:0px;word-spacing:0px;writing-mode:lr-tb;text-anchor:start;fill:#0090d8;fill-opacity:1;stroke:none;stroke-width:0.26458335"
     id="path157" />
  <path
     d="m 211.28048,46.692095 q 0,0.728956 -0.2265,1.328582 -0.21392,0.599626 -0.64176,1.034649 -0.41526,0.435021 -1.01926,0.681926 -0.60402,0.235148 -1.37161,0.235148 -0.76759,0 -1.3716,-0.235148 -0.60401,-0.246905 -1.03185,-0.681926 -0.41525,-0.435023 -0.64175,-1.034649 -0.21392,-0.599626 -0.21392,-1.328582 v -1.951724 q 0,-0.717199 0.21392,-1.316825 0.2265,-0.611383 0.64175,-1.046406 0.42784,-0.435021 1.03185,-0.670169 0.60401,-0.246905 1.3716,-0.246905 0.76759,0 1.37161,0.246905 0.604,0.235148 1.01926,0.670169 0.42784,0.435023 0.64176,1.046406 0.2265,0.599626 0.2265,1.316825 z m -1.64844,-1.763605 q 0,-1.034649 -0.42784,-1.563731 -0.42784,-0.529081 -1.18285,-0.529081 -0.75501,0 -1.18285,0.529081 -0.42783,0.529082 -0.42783,1.563731 v 1.575487 q 0,1.034648 0.42783,1.56373 0.42784,0.529081 1.18285,0.529081 0.75501,0 1.18285,-0.529081 0.42784,-0.529082 0.42784,-1.56373 z"
     style="font-style:normal;font-variant:normal;font-weight:normal;font-stretch:normal;font-size:12.1634264px;line-height:1.25;font-family:CoreSansD55BoldW01-Regular;-inkscape-font-specification:'CoreSansD55BoldW01-Regular, Normal';font-variant-ligatures:normal;font-variant-caps:normal;font-variant-numeric:normal;font-feature-settings:normal;text-align:start;letter-spacing:0px;word-spacing:0px;writing-mode:lr-tb;text-anchor:start;fill:#0090d8;fill-opacity:1;stroke:none;stroke-width:0.26458335"
     id="path159" />
  <path
     d="m 214.42989,49.831312 h -1.64844 v -8.230158 h 1.64844 z"
     style="font-style:normal;font-variant:normal;font-weight:normal;font-stretch:normal;font-size:12.1634264px;line-height:1.25;font-family:CoreSansD55BoldW01-Regular;-inkscape-font-specification:'CoreSansD55BoldW01-Regular, Normal';font-variant-ligatures:normal;font-variant-caps:normal;font-variant-numeric:normal;font-feature-settings:normal;text-align:start;letter-spacing:0px;word-spacing:0px;writing-mode:lr-tb;text-anchor:start;fill:#0090d8;fill-opacity:1;stroke:none;stroke-width:0.26458335"
     id="path161" />
  <path
     d="m 217.59326,46.503977 q 0,1.034648 0.42784,1.56373 0.42785,0.529081 1.23319,0.529081 0.61659,0 1.01926,-0.387993 0.41526,-0.399751 0.51592,-1.152222 l 1.63586,0.22339 q -0.10066,0.611383 -0.36492,1.11695 -0.26425,0.493809 -0.69209,0.84653 -0.41526,0.352721 -0.96893,0.540839 -0.55367,0.188118 -1.20802,0.188118 -0.74242,0 -1.34644,-0.235148 -0.59142,-0.246905 -1.01926,-0.681926 -0.41526,-0.435023 -0.65434,-1.034649 -0.22651,-0.611383 -0.22651,-1.328582 v -1.951724 q 0,-0.717199 0.22651,-1.316825 0.23908,-0.611383 0.65434,-1.046406 0.42784,-0.435021 1.01926,-0.670169 0.60402,-0.246905 1.34644,-0.246905 0.65435,0 1.20802,0.188118 0.55367,0.188118 0.96893,0.540839 0.42784,0.352721 0.69209,0.858288 0.26425,0.49381 0.36492,1.105192 l -1.63586,0.22339 q -0.10066,-0.752471 -0.51592,-1.140464 -0.40267,-0.399751 -1.01926,-0.399751 -0.80534,0 -1.23319,0.529081 -0.42784,0.529082 -0.42784,1.563731 z"
     style="font-style:normal;font-variant:normal;font-weight:normal;font-stretch:normal;font-size:12.1634264px;line-height:1.25;font-family:CoreSansD55BoldW01-Regular;-inkscape-font-specification:'CoreSansD55BoldW01-Regular, Normal';font-variant-ligatures:normal;font-variant-caps:normal;font-variant-numeric:normal;font-feature-settings:normal;text-align:start;letter-spacing:0px;word-spacing:0px;writing-mode:lr-tb;text-anchor:start;fill:#0090d8;fill-opacity:1;stroke:none;stroke-width:0.26458335"
     id="path163" />
  <path
     d="m 223.76627,41.601154 h 5.57449 v 1.363855 h -3.92606 v 1.951724 h 3.41013 v 1.363854 h -3.41013 v 2.18687 h 3.92606 v 1.363855 h -5.57449 z"
     style="font-style:normal;font-variant:normal;font-weight:normal;font-stretch:normal;font-size:12.1634264px;line-height:1.25;font-family:CoreSansD55BoldW01-Regular;-inkscape-font-specification:'CoreSansD55BoldW01-Regular, Normal';font-variant-ligatures:normal;font-variant-caps:normal;font-variant-numeric:normal;font-feature-settings:normal;text-align:start;letter-spacing:0px;word-spacing:0px;writing-mode:lr-tb;text-anchor:start;fill:#0090d8;fill-opacity:1;stroke:none;stroke-width:0.26458335"
     id="path165" />
  <path
     d="m 235.6508,44.763886 v 5.067426 h -1.63585 v -8.230158 h 1.38418 l 2.60478,4.479558 2.60479,-4.479558 h 1.38419 v 8.230158 h -1.63586 v -5.067426 l -1.72394,2.974614 h -1.25835 z"
     style="font-style:normal;font-variant:normal;font-weight:normal;font-stretch:normal;font-size:12.1634264px;line-height:1.25;font-family:CoreSansD55BoldW01-Regular;-inkscape-font-specification:'CoreSansD55BoldW01-Regular, Normal';font-variant-ligatures:normal;font-variant-caps:normal;font-variant-numeric:normal;font-feature-settings:normal;text-align:start;letter-spacing:0px;word-spacing:0px;writing-mode:lr-tb;text-anchor:start;fill:#4d4d4f;fill-opacity:1;stroke:none;stroke-width:0.26458335"
     id="path167" />
  <path
     d="m 249.96494,46.692095 q 0,0.728956 -0.22651,1.328582 -0.21392,0.599626 -0.64176,1.034649 -0.41525,0.435021 -1.01926,0.681926 -0.60401,0.235148 -1.37161,0.235148 -0.76759,0 -1.37159,-0.235148 -0.60402,-0.246905 -1.03185,-0.681926 -0.41525,-0.435023 -0.64177,-1.034649 -0.21391,-0.599626 -0.21391,-1.328582 v -1.951724 q 0,-0.717199 0.21391,-1.316825 0.22652,-0.611383 0.64177,-1.046406 0.42783,-0.435021 1.03185,-0.670169 0.604,-0.246905 1.37159,-0.246905 0.7676,0 1.37161,0.246905 0.60401,0.235148 1.01926,0.670169 0.42784,0.435023 0.64176,1.046406 0.22651,0.599626 0.22651,1.316825 z M 248.3165,44.92849 q 0,-1.034649 -0.42785,-1.563731 -0.42783,-0.529081 -1.18285,-0.529081 -0.755,0 -1.18284,0.529081 -0.42785,0.529082 -0.42785,1.563731 v 1.575487 q 0,1.034648 0.42785,1.56373 0.42784,0.529081 1.18284,0.529081 0.75502,0 1.18285,-0.529081 0.42785,-0.529082 0.42785,-1.56373 z"
     style="font-style:normal;font-variant:normal;font-weight:normal;font-stretch:normal;font-size:12.1634264px;line-height:1.25;font-family:CoreSansD55BoldW01-Regular;-inkscape-font-specification:'CoreSansD55BoldW01-Regular, Normal';font-variant-ligatures:normal;font-variant-caps:normal;font-variant-numeric:normal;font-feature-settings:normal;text-align:start;letter-spacing:0px;word-spacing:0px;writing-mode:lr-tb;text-anchor:start;fill:#4d4d4f;fill-opacity:1;stroke:none;stroke-width:0.26458335"
     id="path169" />
  <path
     d="m 255.87015,44.916733 q 0,-1.022892 -0.42784,-1.481429 -0.41525,-0.470295 -1.2206,-0.470295 h -1.15768 v 5.502448 h 1.15768 q 0.80535,0 1.2206,-0.458537 0.42784,-0.470295 0.42784,-1.493186 z m 1.64844,1.787119 q 0,0.728957 -0.22651,1.305068 -0.2265,0.576111 -0.65433,0.987619 -0.42784,0.39975 -1.03186,0.62314 -0.59142,0.211633 -1.33385,0.211633 h -2.85646 v -8.230158 h 2.85646 q 0.74243,0 1.33385,0.22339 0.60402,0.211633 1.03186,0.623141 0.42783,0.399751 0.65433,0.987619 0.22651,0.576111 0.22651,1.293311 z"
     style="font-style:normal;font-variant:normal;font-weight:normal;font-stretch:normal;font-size:12.1634264px;line-height:1.25;font-family:CoreSansD55BoldW01-Regular;-inkscape-font-specification:'CoreSansD55BoldW01-Regular, Normal';font-variant-ligatures:normal;font-variant-caps:normal;font-variant-numeric:normal;font-feature-settings:normal;text-align:start;letter-spacing:0px;word-spacing:0px;writing-mode:lr-tb;text-anchor:start;fill:#4d4d4f;fill-opacity:1;stroke:none;stroke-width:0.26458335"
     id="path171" />
  <path
     d="m 259.0345,41.601154 h 5.57449 v 1.363855 h -3.92605 v 1.951724 h 3.41012 v 1.363854 h -3.41012 v 2.18687 h 3.92605 v 1.363855 h -5.57449 z"
     style="font-style:normal;font-variant:normal;font-weight:normal;font-stretch:normal;font-size:12.1634264px;line-height:1.25;font-family:CoreSansD55BoldW01-Regular;-inkscape-font-specification:'CoreSansD55BoldW01-Regular, Normal';font-variant-ligatures:normal;font-variant-caps:normal;font-variant-numeric:normal;font-feature-settings:normal;text-align:start;letter-spacing:0px;word-spacing:0px;writing-mode:lr-tb;text-anchor:start;fill:#4d4d4f;fill-opacity:1;stroke:none;stroke-width:0.26458335"
     id="path173" />
  <path
     d="m 267.65027,44.763886 v 5.067426 h -1.63585 v -8.230158 h 1.38419 l 2.60478,4.479558 2.60478,-4.479558 h 1.38419 v 8.230158 h -1.63585 v -5.067426 l -1.72394,2.974614 h -1.25836 z"
     style="font-style:normal;font-variant:normal;font-weight:normal;font-stretch:normal;font-size:12.1634264px;line-height:1.25;font-family:CoreSansD55BoldW01-Regular;-inkscape-font-specification:'CoreSansD55BoldW01-Regular, Normal';font-variant-ligatures:normal;font-variant-caps:normal;font-variant-numeric:normal;font-feature-settings:normal;text-align:start;letter-spacing:0px;word-spacing:0px;writing-mode:lr-tb;text-anchor:start;fill:#4d4d4f;fill-opacity:1;stroke:none;stroke-width:0.26458335"
     id="path175" />
</svg>
